<svg xmlns="http://www.w3.org/2000/svg" width="350.696" height="52.039" viewBox="0 0 350.696 52.039">
  <g id="text05" transform="translate(0.196 -0.613)">
    <rect id="長方形_4" data-name="長方形 4" width="350.696" height="52.039" transform="translate(-0.196 0.613)" fill="#fff"/>
    <g id="グループ_53556" data-name="グループ 53556">
      <path id="パス_33442" data-name="パス 33442" d="M127.161,12.984v.98h-8.494v-.98h3.891V6.554h-3.3V5.588h3.3V.717l1.321.09c-.015.1-.1.178-.312.207V5.588h3.282v.966h-3.282v6.43ZM117,7.445c.713.475,2.169,1.544,2.555,1.841l-.594.832c-.416-.416-1.367-1.2-2.094-1.782v6.089h-1V8.707a15.3,15.3,0,0,1-2.332,1.946,3.969,3.969,0,0,0-.534-.877,14.1,14.1,0,0,0,4.915-5.405h-4.529V3.45h2.48V.613l1.292.075c-.015.1-.1.178-.3.208V3.45h1.6l.178-.059.668.4c-.015.059-.1.118-.178.148A15.276,15.276,0,0,1,117,7.445ZM112.028,13.5a4.458,4.458,0,0,0-.639.95,16.521,16.521,0,0,1-6.326-2.212,20.5,20.5,0,0,1-6.312,2.168,3.607,3.607,0,0,0-.549-.951,20.626,20.626,0,0,0,5.97-1.826,10.973,10.973,0,0,1-3.253-3.951l.847-.311H99.434V6.39h5.139V3.955H98.618v-.98h5.955V.613l1.321.09c-.014.1-.1.178-.3.208V2.975h6.015v.98H105.6V6.39h3.654l.193-.029.742.43a.356.356,0,0,1-.208.149,10.846,10.846,0,0,1-3.935,4.708A17.211,17.211,0,0,0,112.028,13.5Zm-3.4-6.133h-6.772a9.507,9.507,0,0,0,3.282,3.712A9.42,9.42,0,0,0,108.627,7.371ZM93.642,13.148a14.538,14.538,0,0,1-1.218-1.174,5.113,5.113,0,0,1-3.564,1.352,3.216,3.216,0,0,1-3.46-3.163,3.631,3.631,0,0,1,2.331-3.282V6.836a3.96,3.96,0,0,1-1-2.406A2.747,2.747,0,0,1,89.6,1.653,2.318,2.318,0,0,1,92.068,4c0,1.2-.654,2.109-2.688,3.075v.044c1.218,1.411,2.48,2.762,3.163,3.416A7.414,7.414,0,0,0,93.7,7.148h1.1a7.753,7.753,0,0,1-1.618,4.113c.653.639,1.306,1.292,1.93,1.887ZM90.984,4.089a1.448,1.448,0,0,0-1.471-1.575,1.659,1.659,0,0,0-1.648,1.8A3.378,3.378,0,0,0,88.8,6.435C90.108,5.782,90.984,5.143,90.984,4.089Zm-2.673,3.46a2.848,2.848,0,0,0-1.738,2.435,2.377,2.377,0,0,0,2.554,2.391,3.7,3.7,0,0,0,2.673-1.1C91.325,10.846,89.8,9.242,88.311,7.549ZM73.667,12.984h3.891V6.554h-3.3V5.588h3.3V.717l1.322.09c-.015.1-.1.178-.312.207V5.588H81.85v.966H78.568v6.43h3.594v.98h-8.5ZM72,7.445c.713.475,2.168,1.544,2.554,1.841l-.594.832c-.416-.416-1.366-1.2-2.094-1.782v6.089h-1V8.707a15.243,15.243,0,0,1-2.331,1.946,3.971,3.971,0,0,0-.535-.877,14.111,14.111,0,0,0,4.916-5.405h-4.53V3.45h2.48V.613l1.292.075c-.015.1-.1.178-.3.208V3.45h1.6l.178-.059.669.4c-.015.059-.1.118-.179.148A15.272,15.272,0,0,1,72,7.445Zm-5.585,4.529a14.968,14.968,0,0,1-5.806-6.326v4.871h2.97v1.01h-2.97V14.41h-1.04V11.529H56.558v-1.01h3.015V5.678A16.093,16.093,0,0,1,53.8,12a5.4,5.4,0,0,0-.713-.817,14.57,14.57,0,0,0,5.852-6.341H53.573V3.836h6V.628L60.91.7c-.015.1-.089.178-.3.208V3.836h6.059v1.01H61.251A13.7,13.7,0,0,0,67.177,11.1,4.305,4.305,0,0,0,66.419,11.974Z" transform="translate(84.721)" fill="#1d2843" fill-rule="evenodd"/>
      <g id="グループ_53562" data-name="グループ 53562" transform="translate(0)">
        <path id="パス_33443" data-name="パス 33443" d="M170.223,41.822h3.661a9.906,9.906,0,0,1-2.04,5.25l4.35,5.07H171l-1.77-2.1a7.807,7.807,0,0,1-5.971,2.55A7.475,7.475,0,0,1,158.3,50.9a6.1,6.1,0,0,1-.675-8.37,9.194,9.194,0,0,1,3.48-2.565,7.267,7.267,0,0,1-2.01-4.44,4.542,4.542,0,0,1,1.635-3.6,6.091,6.091,0,0,1,4.125-1.41,5.663,5.663,0,0,1,3.975,1.44,4.706,4.706,0,0,1,1.576,3.63q0,3.42-3.721,5.4l2.76,3.36A7.793,7.793,0,0,0,170.223,41.822Zm-3.42-6.33a1.929,1.929,0,0,0-.555-1.425,1.892,1.892,0,0,0-1.4-.555,1.972,1.972,0,0,0-1.41.54,1.749,1.749,0,0,0-.57,1.32q0,1.17,1.71,3.09a5.869,5.869,0,0,0,1.71-1.41A2.559,2.559,0,0,0,166.8,35.492Zm-3.51,7.23q-2.88,1.47-2.88,3.45a2.708,2.708,0,0,0,.885,2.04,3,3,0,0,0,2.145.84,4.74,4.74,0,0,0,3.54-1.86Zm-33.209-11.94H146.1v3.84h-11.37v4.65h10.44v3.69h-10.44v5.25h11.58v3.93h-16.23Zm-20.49,17.91q4.29,0,4.89-4.8h4.65a9.731,9.731,0,0,1-2.82,6.39,9.322,9.322,0,0,1-6.75,2.37,9.7,9.7,0,0,1-7.485-3.075,11.542,11.542,0,0,1-2.835-8.145,11.475,11.475,0,0,1,2.865-7.98,9.774,9.774,0,0,1,7.635-3.18,9.617,9.617,0,0,1,6.39,2.16,7.712,7.712,0,0,1,2.85,5.49h-4.59a4.478,4.478,0,0,0-1.6-2.745,4.93,4.93,0,0,0-3.135-.975,5.01,5.01,0,0,0-3.285,1.1,5.85,5.85,0,0,0-1.875,2.685,10.761,10.761,0,0,0-.54,3.48,8.344,8.344,0,0,0,1.53,5.265A4.94,4.94,0,0,0,109.594,48.692ZM83.4,30.782h4.71v21.36H83.4Zm-20.91,8.88h9.03v3.72h-9.03v8.76h-4.68V30.782h15.06v3.93H62.494Zm-25.589,0h9.03v3.72H36.9v8.76h-4.68V30.782h15.06v3.93H36.9Zm-26.19,12.99a10.045,10.045,0,0,1-7.65-3.075,11.28,11.28,0,0,1-2.91-8.085A11.4,11.4,0,0,1,3.05,33.347a10.071,10.071,0,0,1,7.695-3.075,9.876,9.876,0,0,1,7.575,3.1,11.422,11.422,0,0,1,2.9,8.115,11.314,11.314,0,0,1-2.9,8.085A9.961,9.961,0,0,1,10.715,52.652Zm4.2-16.575a5.114,5.114,0,0,0-4.23-1.965,5.11,5.11,0,0,0-4.215,1.98A8.291,8.291,0,0,0,4.895,41.4a8.426,8.426,0,0,0,1.56,5.4,5.273,5.273,0,0,0,4.29,1.98,5.017,5.017,0,0,0,4.2-1.98,8.621,8.621,0,0,0,1.53-5.4A8.334,8.334,0,0,0,14.915,36.077Z" transform="translate(-0.351)" fill="#1d2843" fill-rule="evenodd"/>
        <path id="パス_33450" data-name="パス 33450" d="M156.441,68.822h8.73v-8.04h4.68v21.36h-4.68v-9.21h-8.73v9.21h-4.68V60.782h4.68Zm-18.63-6.39a7.712,7.712,0,0,1,2.85,5.49h-4.59a4.483,4.483,0,0,0-1.6-2.745,4.936,4.936,0,0,0-3.135-.975,5.006,5.006,0,0,0-3.285,1.095,5.856,5.856,0,0,0-1.875,2.685,10.766,10.766,0,0,0-.54,3.48,8.34,8.34,0,0,0,1.53,5.265,4.939,4.939,0,0,0,4.11,1.965q4.29,0,4.89-4.8h4.65a9.731,9.731,0,0,1-2.82,6.39,9.322,9.322,0,0,1-6.75,2.37,9.693,9.693,0,0,1-7.485-3.075,11.542,11.542,0,0,1-2.835-8.145,11.477,11.477,0,0,1,2.865-7.98,9.776,9.776,0,0,1,7.635-3.18A9.621,9.621,0,0,1,137.811,62.432Zm-32.55-1.65h4.5v21.36h-4.68L96.231,67.8v14.34H91.7V60.782h4.77l8.79,14.31ZM75.5,77.372h-7.95l-1.74,4.77h-4.8l8.13-21.39h4.83l8.13,21.39h-4.92ZM71.541,66l-2.85,7.95h5.67ZM47.452,80.927q-.122-.735-.21-1.89c-.06-.769-.09-1.195-.09-1.275a5.138,5.138,0,0,0-1.125-3.12,4.437,4.437,0,0,0-3.135-.87H38.721v8.37h-4.65V60.782H44.692a8.455,8.455,0,0,1,5.19,1.5,5.326,5.326,0,0,1,2.01,4.56,5.868,5.868,0,0,1-.9,3.255,4.975,4.975,0,0,1-2.49,2q2.759.57,3.15,4.98c0,.1.019.41.06.93s.079.935.12,1.245.09.686.15,1.125a4.747,4.747,0,0,0,.27,1.11,1.689,1.689,0,0,0,.42.66h-4.86A4.193,4.193,0,0,1,47.452,80.927ZM46.237,65.072a5.842,5.842,0,0,0-2.865-.6H38.721v5.91h4.441a6.271,6.271,0,0,0,3.045-.615A2.523,2.523,0,0,0,47.3,67.352,2.386,2.386,0,0,0,46.237,65.072Zm-25.425,15.4a7.943,7.943,0,0,1-5.19,1.665H4.942V60.782h10.11a8.371,8.371,0,0,1,4.905,1.335,5.1,5.1,0,0,1,1.125,6.69,4.919,4.919,0,0,1-2.13,1.755,4.931,4.931,0,0,1,3.9,5.22A5.717,5.717,0,0,1,20.812,80.477Zm-4.47-15.54a5.405,5.405,0,0,0-2.58-.525H9.5v5.01h4.26q3.539,0,3.54-2.49A2.067,2.067,0,0,0,16.342,64.937Zm.705,8.25a6.73,6.73,0,0,0-3.075-.585H9.5v5.82h4.71a5.9,5.9,0,0,0,2.9-.6,2.417,2.417,0,0,0,1.065-2.31A2.37,2.37,0,0,0,17.047,73.187Z" transform="translate(180.649 -30)" fill="#1d2843" fill-rule="evenodd"/>
      </g>
    </g>
  </g>
</svg>
