<svg xmlns="http://www.w3.org/2000/svg" width="201.39" height="52.128" viewBox="0 0 201.39 52.128">
  <g id="text04" transform="translate(0.198 -0.524)">
    <rect id="長方形_3" data-name="長方形 3" width="201.39" height="52" transform="translate(-0.198 0.524)" fill="#fff"/>
    <g id="グループ_53555" data-name="グループ 53555" transform="translate(-1)">
      <path id="パス_33444" data-name="パス 33444" d="M131.2,7l.179-.044.623.223a.579.579,0,0,1-.1.193,12.737,12.737,0,0,1-1.633,4.47,6.549,6.549,0,0,0,2.257,1.707,3.906,3.906,0,0,0-.7.862,7.193,7.193,0,0,1-2.138-1.738,7.837,7.837,0,0,1-1.738,1.619,3.209,3.209,0,0,0-.683-.668,7.014,7.014,0,0,0,1.812-1.753A12.208,12.208,0,0,1,127.4,8.351l.8-.208a11.022,11.022,0,0,0,1.41,2.881,11.164,11.164,0,0,0,1.174-3.149H127v6.55h-.951V1.311h5.777V5.039c0,1.069-.534,1.069-2.554,1.069a3.3,3.3,0,0,0-.3-.861c.386,0,.757.015,1.039.015.817,0,.877,0,.877-.238V2.232H127V7ZM118.759,4.653h2.97V2.99h-2.376V2.128h2.376V.628L122.946.7c-.014.1-.089.178-.282.193V2.128h2.362V2.99h-2.362V4.653h2.985v.876h-6.89Zm-10.471.95h4.01V4.519h-2.9V3.747h2.9V2.737h-3.49v-.8h3.49V.6l1.336.089c-.014.1-.089.178-.3.208V1.935h3.624v.8h-3.624v1.01h3.015v.772h-3.015V5.6h4.144V6.45h-9.193Zm-.163-.193a16.242,16.242,0,0,0-1.069-2.183l.683-.341a12,12,0,0,1,1.1,2.094Zm-1.307,8.97h-.98V.6L107.1.688c-.015.1-.089.178-.282.193ZM103.655,7.1a7.731,7.731,0,0,0,.8-3.579l.8.119a7.9,7.9,0,0,1-.862,3.876A6.684,6.684,0,0,0,103.655,7.1Zm-1.1,6.208a4.258,4.258,0,0,0-.668.876,14.485,14.485,0,0,1-5.807-3.178v3.4h-1V11.083a15.159,15.159,0,0,1-5.762,3.06,3.879,3.879,0,0,0-.653-.847,14.5,14.5,0,0,0,5.45-2.51H89.056V9.925h6.029v-1.2h-4.6v-.8h4.6V6.732H89.724V5.9H93.11a7.3,7.3,0,0,0-.772-1.574l.579-.119h-3.8V3.331h2.5a11.2,11.2,0,0,0-1.247-2.257l.846-.3a9.537,9.537,0,0,1,1.322,2.257l-.787.3h1.945V.6l1.263.074c-.015.148-.134.223-.327.252V3.331h1.931V.6l1.292.074c-.015.148-.149.223-.342.252V3.331h1.871c-.193-.074-.416-.163-.549-.208A13.839,13.839,0,0,0,100.045.807l1.174.4c-.03.089-.149.133-.312.133a22.19,22.19,0,0,1-1.2,1.99h2.435v.876H98.783l.431.134a.282.282,0,0,1-.312.134c-.208.4-.535.98-.832,1.425h3.52v.832H96.08V7.92h4.782v.8H96.08v1.2H102.2v.861H97.046A13.92,13.92,0,0,0,102.555,13.311ZM97.343,5.9l-.238-.089a13.527,13.527,0,0,0,.832-1.6H93.318A7.052,7.052,0,0,1,94.135,5.8l-.461.1ZM86.961,7.385a21.479,21.479,0,0,1-6.415-5.806,20.152,20.152,0,0,1-6.282,5.9,5.628,5.628,0,0,0-.624-.758A18.353,18.353,0,0,0,80.011.524l1.456.089a.364.364,0,0,1-.312.223A19.7,19.7,0,0,0,87.63,6.509,4.752,4.752,0,0,0,86.961,7.385Zm-10.781,0,1.277.075c-.015.1-.1.178-.3.208v5.376h3.015V4.653l1.336.074c-.015.1-.1.178-.3.208v3.3h4.411v.906H81.214v3.906H87.05v.92H74.205v-.92H76.18Zm39.964,5.956c0,.965-.386,1.069-2.45,1.069a3.361,3.361,0,0,0-.312-.862c.416.015.8.03,1.084.03.609,0,.683,0,.683-.237V12.019h-4.618V14.38h-.966V7.445h6.579Zm-.995-5.079h-4.618V9.375h4.618Zm0,1.871h-4.618v1.128h4.618Zm5.421-4.455a8.178,8.178,0,0,1,.713,2l-.8.253a7.676,7.676,0,0,0-.683-2.049Zm2.347,2.227a14.939,14.939,0,0,0,.891-2.213l1.054.357c-.044.089-.148.134-.312.134a16.821,16.821,0,0,1-.95,1.841h1.782V8.9h-2.733v1.723h2.54V11.5h-2.54v2.926h-.935V11.5H119.16v-.876h2.554V8.9h-2.747V8.024h4.217Z" transform="translate(-1.838)" fill="#1d2843" fill-rule="evenodd"/>
      <path id="パス_33445" data-name="パス 33445" d="M193.917,43.922v8.22H189.3v-8.31l-7.98-13.05h5.34l4.98,8.55,5.04-8.55h5.191ZM158.158,37.8v14.34h-4.53V30.782h4.77l8.79,14.31V30.782h4.5v21.36h-4.68Zm-20.73,9.57h-7.95l-1.74,4.77h-4.8l8.13-21.39h4.83l8.13,21.39h-4.92ZM133.468,36l-2.85,7.95h5.67Zm-26.52,8.46h-4.8v7.68H97.5V30.782h9.21a8.776,8.776,0,0,1,5.715,1.725,6.249,6.249,0,0,1,2.115,5.145,6.2,6.2,0,0,1-2.1,5.085A8.372,8.372,0,0,1,106.948,44.462Zm-.6-9.84h-4.2v6.15h4.17q3.66,0,3.66-3.06Q109.978,34.622,106.348,34.622Zm-25.23,2.34-5.25,15.18h-3.63l-5.31-15.03v15.03h-4.47V30.782h6.69l4.98,14.67,4.86-14.67h6.54v21.36h-4.41Zm-40.17,15.69a10.045,10.045,0,0,1-7.65-3.075,11.28,11.28,0,0,1-2.91-8.085,11.4,11.4,0,0,1,2.9-8.145,10.071,10.071,0,0,1,7.695-3.075,9.876,9.876,0,0,1,7.575,3.1,11.422,11.422,0,0,1,2.9,8.115,11.314,11.314,0,0,1-2.9,8.085A9.961,9.961,0,0,1,40.948,52.652Zm4.2-16.575a5.506,5.506,0,0,0-8.445.015,8.291,8.291,0,0,0-1.575,5.31,8.426,8.426,0,0,0,1.56,5.4,5.273,5.273,0,0,0,4.29,1.98,5.017,5.017,0,0,0,4.2-1.98,8.621,8.621,0,0,0,1.53-5.4A8.334,8.334,0,0,0,45.148,36.077ZM10.828,48.692q4.29,0,4.89-4.8h4.65a9.731,9.731,0,0,1-2.82,6.39,9.322,9.322,0,0,1-6.75,2.37,9.7,9.7,0,0,1-7.485-3.075A11.542,11.542,0,0,1,.478,41.432a11.475,11.475,0,0,1,2.865-7.98,9.774,9.774,0,0,1,7.635-3.18,9.617,9.617,0,0,1,6.39,2.16,7.712,7.712,0,0,1,2.85,5.49h-4.59a4.478,4.478,0,0,0-1.605-2.745,4.93,4.93,0,0,0-3.135-.975A5.01,5.01,0,0,0,7.6,35.3a5.851,5.851,0,0,0-1.875,2.685,10.761,10.761,0,0,0-.54,3.48,8.344,8.344,0,0,0,1.53,5.265A4.94,4.94,0,0,0,10.828,48.692Z" transform="translate(0.324)" fill="#1d2843" fill-rule="evenodd"/>
    </g>
  </g>
</svg>
