<svg xmlns="http://www.w3.org/2000/svg" width="71.02" height="71.02" viewBox="0 0 71.02 71.02">
  <g id="circle-fukuoka" transform="translate(0.312 0.48)">
    <g id="レイヤー_1" data-name="レイヤー 1">
      <circle id="楕円形_2" data-name="楕円形 2" cx="35.51" cy="35.51" r="35.51" transform="translate(-0.312 -0.48)" fill="#00e4d2"/>
      <path id="パス_33475" data-name="パス 33475" d="M-14.976-.4a14.606,14.606,0,0,1-.1,1.728h1.824a11.534,11.534,0,0,1-.08-1.7V-4.816A7.842,7.842,0,0,0-12.1-3.68a4.756,4.756,0,0,1,.656-1.408c.016.32.016.464.016.72V-.384a11.549,11.549,0,0,1-.1,1.648h1.744V.64h5.424V1.3h1.76a14.423,14.423,0,0,1-.08-1.648V-4.384a14.714,14.714,0,0,1,.064-1.648,13.69,13.69,0,0,1-1.632.064H-9.872c-.736,0-1.184-.016-1.616-.048.032.3.032.448.048.784a5.887,5.887,0,0,1-1.7-1.344,13.426,13.426,0,0,0,1.488-2.7,7.5,7.5,0,0,1,.336-.736l-.752-.976a4.2,4.2,0,0,1-.784.048h-.48v-1.3a7.2,7.2,0,0,1,.1-1.248h-1.856a7.545,7.545,0,0,1,.1,1.232v1.312h-.624a9.054,9.054,0,0,1-1.2-.064V-9.28a10.7,10.7,0,0,1,1.28-.064h2.224a10.411,10.411,0,0,1-1.472,2.336,10.943,10.943,0,0,1-2.544,2.272,6.573,6.573,0,0,1,.768,1.744,13.22,13.22,0,0,0,1.584-1.36Zm5.2-4.144h1.92v1.152h-1.92Zm3.488,0h1.936v1.152H-6.288Zm-3.488,2.48h1.92V-.816h-1.92Zm3.488,0h1.936V-.816H-6.288Zm-5.392-9.264a10.6,10.6,0,0,1,1.536-.08H-3.92a10.33,10.33,0,0,1,1.536.08v-1.68a12.332,12.332,0,0,1-1.712.08h-5.84c-.688,0-1.232-.032-1.744-.08Zm.9,3.36a8.848,8.848,0,0,1-.064,1.216A14.1,14.1,0,0,1-9.3-6.816h4.48a13.2,13.2,0,0,1,1.552.064A9.052,9.052,0,0,1-3.328-8V-9.44a8.848,8.848,0,0,1,.064-1.216,14.032,14.032,0,0,1-1.52.064H-9.3a14.285,14.285,0,0,1-1.552-.064,8.949,8.949,0,0,1,.064,1.232Zm1.6-1.264h4.176v1.1H-9.184ZM4.88-8.448a9.1,9.1,0,0,1-1.44-.08v1.68a11.483,11.483,0,0,1,1.44-.064H7.216v3.824H5.76v-1.76A8.9,8.9,0,0,1,5.824-6.1H4.208A13.508,13.508,0,0,1,4.272-4.7v2.64a11.828,11.828,0,0,1-.08,1.68H5.76V-1.52h4.56l.016.448h1.552a14.043,14.043,0,0,1-.064-1.568V-4.752A8.185,8.185,0,0,1,11.9-6.1H10.256a9.566,9.566,0,0,1,.064,1.232v1.776H8.784V-6.912h2.464a11.364,11.364,0,0,1,1.424.064v-1.68a8.072,8.072,0,0,1-1.424.08h-.96a15.619,15.619,0,0,0,1.168-2.112L9.84-11.12A11.711,11.711,0,0,1,8.592-8.448ZM3.12-12.864a13.7,13.7,0,0,1-1.84-.08,14.668,14.668,0,0,1,.064,1.552V-.56a14.951,14.951,0,0,1-.1,1.824H3.136A15.671,15.671,0,0,1,3.072-.512V-11.264h9.936V-.752c0,.24-.16.32-.608.32a16.72,16.72,0,0,1-2.208-.192A5.963,5.963,0,0,1,10.7,1.088c.9.064,1.136.08,1.664.08a3.5,3.5,0,0,0,1.84-.3,1.421,1.421,0,0,0,.528-1.248v-10.8a12.99,12.99,0,0,1,.08-1.744,15.055,15.055,0,0,1-1.728.064Zm1.648,2.3A8.083,8.083,0,0,1,5.856-8.5l1.5-.576a10.58,10.58,0,0,0-1.12-2.112ZM-18.608,9.728h-3.168V7.136a9.411,9.411,0,0,1,.064-1.28h-1.92a8.912,8.912,0,0,1,.08,1.408v3.168c0,.368-.016.672-.048,1.024.384-.032.72-.048,1.152-.048h3.84v5.248h-3.76V14.064a7.906,7.906,0,0,1,.08-1.376h-1.936a13.3,13.3,0,0,1,.08,1.536v3.392a11.609,11.609,0,0,1-.1,1.6h1.872v-.832h9.52v.832h1.872a10.1,10.1,0,0,1-.1-1.6V14.16a12.792,12.792,0,0,1,.08-1.52h-1.936a8.514,8.514,0,0,1,.08,1.36v2.656H-16.8V11.408h4.128c.384,0,.768.016,1.12.048a8.766,8.766,0,0,1-.048-1.024V7.248a9.2,9.2,0,0,1,.08-1.392h-1.92a9.612,9.612,0,0,1,.064,1.264V9.728H-16.8v-3.5a10.3,10.3,0,0,1,.1-1.584h-2a9.606,9.606,0,0,1,.1,1.584ZM1.456,13.312a8.508,8.508,0,0,0,1.872,3.52,11.006,11.006,0,0,0,3.36,2.5A5.443,5.443,0,0,1,7.6,17.664,7.594,7.594,0,0,1,4.88,16.1,20.084,20.084,0,0,0,6.8,14.368l-1.264-.96A8.974,8.974,0,0,1,3.872,15.04a5.177,5.177,0,0,1-.88-1.728H5.76a10.36,10.36,0,0,1,1.52.08V11.7a10.536,10.536,0,0,1-1.568.08H.576v-.864h4.24a9.237,9.237,0,0,1,1.376.08v-1.5a9.493,9.493,0,0,1-1.376.064H.576v-.8h4.24a11.867,11.867,0,0,1,1.376.064v-1.5a8.09,8.09,0,0,1-1.408.08H.576V6.576H4.912a12.677,12.677,0,0,1,1.76.08V5.024a13.4,13.4,0,0,1-1.824.1H.672A14.28,14.28,0,0,1-1.1,5.04,12.448,12.448,0,0,1-1.04,6.5v5.28h-.1a8.83,8.83,0,0,1-1.28-.064v.464c-.256.016-.5.032-.912.032h-1.84c.112-.816.112-.9.208-1.984h1.568a10.591,10.591,0,0,1,1.136.048C-2.288,9.76-2.3,9.28-2.3,8.8V6.384a10.038,10.038,0,0,1,.048-1.232,10.235,10.235,0,0,1-1.232.064H-5.472a8.958,8.958,0,0,1-1.488-.1V6.832a10.65,10.65,0,0,1,1.392-.064h1.616V8.72H-5.264a8.084,8.084,0,0,1-1.328-.064,30.829,30.829,0,0,1-.48,5.088c.384-.016.688-.032,1.1-.032H-4.08a10.756,10.756,0,0,1-.432,3.344c-.128.32-.3.4-.848.4a13.47,13.47,0,0,1-1.632-.144,7.761,7.761,0,0,1,.352,1.776c.528.032,1.008.048,1.472.048a2.772,2.772,0,0,0,1.36-.256c.624-.32.864-.832,1.12-2.256a19.654,19.654,0,0,0,.288-3.28c.272-.016.544-.032.96-.032h.272V17.36a11.243,11.243,0,0,1-1.44.16l.288,1.648A1.408,1.408,0,0,0-2,19.1c.208-.032.208-.032.512-.1A41.051,41.051,0,0,0,2.88,18l-.032-1.536a21.225,21.225,0,0,1-2.368.592V13.312ZM21.712,11.1v6.32a12.741,12.741,0,0,1-.1,1.744H23.5a9.945,9.945,0,0,1-.1-1.728V11.1h.24a8.912,8.912,0,0,1,1.408.08V9.328a8.121,8.121,0,0,1-1.552.1H19.872v-2a24.561,24.561,0,0,0,4.368-.976,6.743,6.743,0,0,1,.736-.208l-.912-1.632A14.985,14.985,0,0,1,18.1,5.952c.048.528.064,1.024.064,2.528a22.752,22.752,0,0,1-.512,5.92,7.311,7.311,0,0,1-2.272,3.536A5.237,5.237,0,0,1,16.7,19.264a12.317,12.317,0,0,0,1.024-1.2,8.792,8.792,0,0,0,1.392-2.592,15.108,15.108,0,0,0,.7-4.368ZM10.624,6.976a11.227,11.227,0,0,1,1.632-.08h3.632a10.662,10.662,0,0,1,1.664.08V5.184a10.961,10.961,0,0,1-1.744.08H12.352a12.03,12.03,0,0,1-1.728-.08Zm6.464,2.56q0-.936.048-1.44c-.5.032-.88.048-1.616.048H12.928c-.768,0-1.168-.016-1.7-.048a19.817,19.817,0,0,1,.08,2.224c0,4.32-.272,5.952-1.264,7.648a5.038,5.038,0,0,1,1.424,1.264,11.134,11.134,0,0,0,1.424-5.7h2.656c.88.016,1.408.032,1.568.032-.032-.4-.032-.576-.032-1.28Zm-4.16,2.48c.016-.464.016-.608.016-1.216V9.648h2.5v2.368Z" transform="translate(34.928 32.008)" fill="#fff"/>
    </g>
  </g>
</svg>
