<svg xmlns="http://www.w3.org/2000/svg" viewBox="0 0 71.02 71.02"><defs><style>.cls-1{fill:#78a1ff;}.cls-2{fill:#fff;}</style></defs><title>circle-okinawa</title><g id="レイヤー_2" data-name="レイヤー 2"><g id="レイヤー_1-2" data-name="レイヤー 1"><circle class="cls-1" cx="35.51" cy="35.51" r="35.51"/><path class="cls-2" d="M19.4,23.7a12.68,12.68,0,0,1,3,1.5l-1,1.54a12,12,0,0,0-2.92-1.64ZM19,32.55a48.55,48.55,0,0,0,2.84-4.87l1.38,1.21c-.78,1.6-1.7,3.27-2.44,4.47a.49.49,0,0,1,.09.28.42.42,0,0,1-.09.26Zm3.25-9.93a12.05,12.05,0,0,0-2.87-1.72l1-1.37a11.36,11.36,0,0,1,2.95,1.58Zm6.6-.17h3.65v7.43H30.66v-.63H28.82V34H27v-4.7H25.12V30H23.4V22.45H27v-3l2.27.12c0,.15-.14.25-.41.29Zm-3.7,5H27V24.25H25.12Zm3.7,0h1.84V24.25H28.82Z"/><path class="cls-2" d="M49.81,31.63h-.29a4.36,4.36,0,0,0,1.06.37c-.17,1.37-.63,1.84-1.81,1.84H46.93c-1.52,0-1.9-.51-1.9-2.21H43.69v.77H42.08v-1l-1.4.48a19.08,19.08,0,0,0-.87-3l1.34-.43a17.67,17.67,0,0,1,.94,2.86V27.78l-1.35.61a6.5,6.5,0,0,0-.2-.78l-.72,0V34h-1.6V29c0,.09-.15.14-.32.14a14.22,14.22,0,0,1-.83,3.65,9.2,9.2,0,0,0-1.29-.63,13.63,13.63,0,0,0,.71-3.61l1.73.4V27.76c-.68,0-1.27.08-1.77.09a.31.31,0,0,1-.28.23l-.35-1.84h1.06c.25-.31.49-.65.75-1a13.64,13.64,0,0,0-1.77-2.17l.91-1.24.34.32a21.55,21.55,0,0,0,1.14-2.69l1.8.72a.46.46,0,0,1-.43.15,23.39,23.39,0,0,1-1.54,2.84,5.88,5.88,0,0,1,.49.63A25.58,25.58,0,0,0,40,21.32l1.72.78a.46.46,0,0,1-.41.17c-.49.81-1.15,1.8-1.86,2.73l1.27-.52a13.86,13.86,0,0,1,1.38,3.1V26H45v-.69H42.26v-5.3h7.4v5.3h-3V26h3.12ZM40,26.2c-.18-.41-.38-.81-.58-1.17-.31.41-.61.81-.92,1.18Zm5,1.21H43.69v.78H45Zm-1.34,2.86H45v-.81H43.69Zm.15-8.93v.77H45v-.77Zm0,2.75H45V23.3H43.84Zm4.16-2v-.77H46.7v.77Zm0,2V23.3H46.7v.78Zm.14,3.33H46.7v.78h1.44Zm0,2H46.7v.81h1.44ZM46.7,31.63c0,.69.06.8.54.8h1.4c.32,0,.43-.17.49-.8Z"/><path class="cls-2" d="M16.88,42.81V41.74h7.18v1.06H21.31l.18.05a.2.2,0,0,1-.21.12,5.16,5.16,0,0,1-2.73,4,7.4,7.4,0,0,0-.89-.75,4,4,0,0,0,2.4-3.38Zm6.28-2.55a4.86,4.86,0,0,0-.45-.72v.83h-5V39.31h4.8a3.14,3.14,0,0,0-.33-.35l.52-.38a7.16,7.16,0,0,1,1,1.29ZM24.44,40a7.1,7.1,0,0,0-1-1.28l.49-.37a7.83,7.83,0,0,1,1,1.27Z"/><path class="cls-2" d="M34.38,42H32.59v.35a4.64,4.64,0,0,1-2.86,4.61,6.4,6.4,0,0,0-.84-.79,3.76,3.76,0,0,0,2.54-3.81V42H29.2v2H28.06V42H26.49V40.87h1.57V39l1.41.09a.28.28,0,0,1-.27.23v1.56h2.23v-2l1.43.08c0,.09-.09.17-.26.21v1.68h1.79ZM33.1,39.21A5.73,5.73,0,0,1,34,40.3l-.48.39a6.22,6.22,0,0,0-.91-1.13Zm.93-.77a5.9,5.9,0,0,1,1,1.11l-.46.37a6.25,6.25,0,0,0-.95-1.12Z"/><path class="cls-2" d="M43.86,39.72a.31.31,0,0,1-.29.1,24.26,24.26,0,0,1-2.46,2.06l.29.1a.29.29,0,0,1-.26.17v4.75H39.93V42.63a26.82,26.82,0,0,1-3,1.7,4.2,4.2,0,0,0-.69-.88,20.64,20.64,0,0,0,6.49-4.57Z"/><path class="cls-2" d="M46.29,39.48A11.8,11.8,0,0,1,49,40.68l-.6,1a13.3,13.3,0,0,0-2.6-1.25ZM46,45.64a9.33,9.33,0,0,0,6.23-5.23,6.89,6.89,0,0,0,1.06.67A10.52,10.52,0,0,1,47,46.56a.32.32,0,0,1-.15.24Z"/><path class="cls-2" d="M24.43,49.32a.32.32,0,0,1-.18.16,12.12,12.12,0,0,1-1.75,3,7,7,0,0,0-1-.53,5.48,5.48,0,0,0,1.13-1.71l-2.51.65v2c0,.73.3,1,1,1h1.43a12,12,0,0,0,1.39-.13c0,.34,0,.8,0,1.12-.36,0-1,.07-1.4.07H21.06c-1.43,0-2.13-.64-2.13-2V51.16l-2,.51-.28-1.06,2.29-.55V47.43l1.44.07c0,.12-.11.18-.26.22v2L23.32,49l.13-.1Z"/><path class="cls-2" d="M27,47.8A11.8,11.8,0,0,1,29.71,49l-.6,1a13.3,13.3,0,0,0-2.6-1.25ZM26.74,54A9.33,9.33,0,0,0,33,48.73,6.89,6.89,0,0,0,34,49.4a10.52,10.52,0,0,1-6.31,5.48.32.32,0,0,1-.15.24Z"/><path class="cls-2" d="M42.57,48.81a.31.31,0,0,1-.15.16,13.36,13.36,0,0,1-1.26,2.85c.32.19.74.46,1,.65l-.66,1.12a12.05,12.05,0,0,0-1-.74,8.62,8.62,0,0,1-3.06,2.44,3.55,3.55,0,0,0-.9-.86,8.37,8.37,0,0,0,3-2.17,11,11,0,0,0-1.54-.77l.63-.89a13.81,13.81,0,0,1,1.59.7A7.6,7.6,0,0,0,41,49.5H38.47a10.36,10.36,0,0,1-2,2.28,7,7,0,0,0-.95-.72,8.3,8.3,0,0,0,2.76-3.94l1.46.32c0,.1-.14.15-.3.15a7.82,7.82,0,0,1-.4.85h2.43l.19-.05Z"/><path class="cls-2" d="M45.12,50.5h7.59v1.15H45.5a.44.44,0,0,1-.31.17Z"/></g></g></svg>