<svg xmlns="http://www.w3.org/2000/svg" viewBox="0 0 123.62 123.62"><defs><style>.cls-1{fill:#009de6;}.cls-2{fill:#fff;}</style></defs><title>circle-tokyo</title><g id="レイヤー_2" data-name="レイヤー 2"><g id="レイヤー_1-2" data-name="レイヤー 1"><circle class="cls-1" cx="61.81" cy="61.81" r="61.81"/><path class="cls-2" d="M54.75,47.56H48a30.23,30.23,0,0,0,10.15,5.92,14.83,14.83,0,0,0-2.68,3.24,30.79,30.79,0,0,1-10.31-7.32V57H41.27V49.55a31.07,31.07,0,0,1-10.12,7.1,17.87,17.87,0,0,0-2.58-3.15,28.43,28.43,0,0,0,9.9-5.95H32.11v-12h9.16V33.73H29.46V30.24h11.8V27.65L46,27.9c0,.31-.28.5-.84.62v1.71H57.24v3.49H45.16v1.81h9.59Zm-19-9.22v1.87h5.51V38.34Zm0,4.48v1.93h5.51V42.82Zm15.17-4.48H45.16v1.87h5.76Zm0,6.42V42.82H45.16v1.93Z"/><path class="cls-2" d="M73.68,49.11a.78.78,0,0,1-.81.34,30.81,30.81,0,0,1-5.79,6.45A21.91,21.91,0,0,0,64,53.72a19,19,0,0,0,5.33-6ZM92.93,30.65v3.58H64.72V30.65h12v-3l4.89.28c0,.31-.28.53-.9.59v2.15ZM89.29,46.47H80.69V53.1c0,3.39-1.34,3.92-7.51,3.92A15.09,15.09,0,0,0,72,53.44c1.15,0,2.55.06,3.39.06,1.18,0,1.37,0,1.37-.53V46.47H68.51V36.41H89.29Zm-17-6.85v3.64H85.33V39.61ZM89.47,56.12a46.61,46.61,0,0,0-5.36-6.82l3.43-1.62a49.12,49.12,0,0,1,5.61,6.54Z"/><path class="cls-2" d="M57.15,74.9H47.5a27.91,27.91,0,0,0,11,11.4,16.9,16.9,0,0,0-2.9,3.39,26,26,0,0,1-5.14-4.2v3.58h-5.2v5.33h-4V89.07H35.91V85.73a28.55,28.55,0,0,1-4.92,4,20,20,0,0,0-2.74-3.11c4.42-2.4,8.38-6.91,10.81-11.77H29.49V71.1H41.3V65l4.83.25c0,.31-.28.5-.87.62v5.2h11.9ZM41.3,78.42a35.67,35.67,0,0,1-5,6.85h5Zm4,6.85h5a35.39,35.39,0,0,1-5-6.91Z"/><path class="cls-2" d="M77.7,72a.88.88,0,0,1-.53.47,30.94,30.94,0,0,1-3.86,7c1.53,1.06,4.11,3,4.83,3.52L76,86.11a36.12,36.12,0,0,0-3.11-3.18V94.42H69.14V84.3a24.4,24.4,0,0,1-3.74,2.93,14.43,14.43,0,0,0-1.81-3.52,24.19,24.19,0,0,0,9.09-9.53H64.56V70.82h4.58V65l4.55.25c0,.31-.28.5-.84.59v5h1.84l.56-.16Zm9.37,17.78h6.7v3.67H76V89.81h7.26V78.32h-6V74.71h6V65.3l4.7.28c0,.31-.28.5-.84.59v8.53H93v3.61H87.08Z"/></g></g></svg>