<svg xmlns="http://www.w3.org/2000/svg" viewBox="0 0 71.02 71.02"><defs><style>.cls-1{fill:#00e4d2;}.cls-2{fill:#fff;}</style></defs><title>circle-osaka</title><g id="レイヤー_2" data-name="レイヤー 2"><g id="レイヤー_1-2" data-name="レイヤー 1"><circle class="cls-1" cx="35.51" cy="35.51" r="35.51"/><path class="cls-2" d="M32.57,25.54H27.05c.91,3.18,2.69,5.59,5.85,6.65A7.93,7.93,0,0,0,31.57,34a9.91,9.91,0,0,1-5.82-6.23A10,10,0,0,1,19.9,34a5.76,5.76,0,0,0-1.35-1.61,8.6,8.6,0,0,0,5.73-6.82H18.84v-1.9h5.69c.11-1.37.09-2.76.11-4.14l2.44.15c0,.17-.17.28-.43.32,0,1.18,0,2.42-.14,3.67h6Z"/><path class="cls-2" d="M40.34,20.09l1.15.58a.39.39,0,0,1-.14.23c-.32,1.23-.83,2.87-1.27,4.1a4.62,4.62,0,0,1,1.34,3c0,2.3-1.37,2.49-2.69,2.43a3.77,3.77,0,0,0-.38-1.52l.71,0c.51,0,.71-.31.71-1.09a4.36,4.36,0,0,0-1.24-2.66c.32-1,.64-2.35.89-3.41H38.18V34h-1.6V20.15h3.48Zm3.5,4.27h4.68l.31-.06s0,0,1.09.35a.82.82,0,0,1-.15.28,13.85,13.85,0,0,1-2.06,5.76,8,8,0,0,0,2.86,1.77A6.8,6.8,0,0,0,49.38,34a8.75,8.75,0,0,1-2.82-1.92A9.86,9.86,0,0,1,43.78,34a6.54,6.54,0,0,0-1.06-1.52,7.38,7.38,0,0,0,2.67-1.81,14.11,14.11,0,0,1-1.63-3.42h0a13.28,13.28,0,0,1-2.07,6.69,6.09,6.09,0,0,0-1.4-1.11c1.69-2.26,1.83-5.57,1.83-8V20.33h8.15V22H43.84Zm0,2.17,1.29-.29a10.52,10.52,0,0,0,1.4,3A10.56,10.56,0,0,0,47.76,26H43.83Z"/><path class="cls-2" d="M29.91,43.49l1.37.78a.52.52,0,0,1-.29.25,10.88,10.88,0,0,1-3.53,4.68A18.17,18.17,0,0,0,33,50.62a8.27,8.27,0,0,0-1.18,1.8,16.5,16.5,0,0,1-6.19-2,19.94,19.94,0,0,1-6.17,2,7.11,7.11,0,0,0-1-1.78,21.15,21.15,0,0,0,5.51-1.41,11.82,11.82,0,0,1-2.61-3.35l1.38-.48H19.81V43.55h4.87v-1.8H18.9V39.93h5.77v-2L27,38c0,.15-.14.25-.43.31v1.6h5.86v1.83H26.59v1.8h3Zm-6.8,1.87a8.26,8.26,0,0,0,2.61,2.85,8.2,8.2,0,0,0,2.72-2.85Z"/><path class="cls-2" d="M42.65,41.36a.43.43,0,0,1-.26.23A15.26,15.26,0,0,1,40.48,45c.75.52,2,1.46,2.38,1.73L41.79,48.3a18,18,0,0,0-1.54-1.57V52.4H38.42v-5a12,12,0,0,1-1.84,1.44,7.12,7.12,0,0,0-.89-1.73,11.93,11.93,0,0,0,4.48-4.7h-4V40.76h2.26V37.91l2.24.12c0,.15-.14.25-.42.29v2.44h.91l.28-.08Zm4.62,8.76h3.3v1.81H41.79V50.12h3.58V44.46H42.42V42.68h2.95V38l2.32.14c0,.15-.14.25-.41.29v4.21H50.2v1.78H47.27Z"/></g></g></svg>