<svg xmlns="http://www.w3.org/2000/svg" viewBox="0 0 71.02 71.02"><defs><style>.cls-1{fill:#2edaff;}.cls-2{fill:#fff;}</style></defs><title>circle-nagoya</title><g id="レイヤー_2" data-name="レイヤー 2"><g id="レイヤー_1-2" data-name="レイヤー 1"><circle class="cls-1" cx="35.51" cy="35.51" r="35.51"/><path class="cls-2" d="M23.08,28.28v7H21.16v-.55H15.9v.54H14.09V30.83a19.81,19.81,0,0,1-3.45,1.54,6.21,6.21,0,0,0-1.07-1.64,17,17,0,0,0,5.39-2.67,17.2,17.2,0,0,0-2-1.75l1.37-1.17a18.3,18.3,0,0,1,2.12,1.67,12.35,12.35,0,0,0,2.21-2.89h-4A16.62,16.62,0,0,1,10.94,27a5.86,5.86,0,0,0-1.3-1.44,12.07,12.07,0,0,0,5-4.88l2.33.41c0,.17-.18.26-.43.26q-.28.46-.6.92h3.75l.29-.08,1.35.69a.52.52,0,0,1-.26.21,14.08,14.08,0,0,1-3.52,5.16ZM15.9,33h5.27V29.92H15.9Z"/><path class="cls-2" d="M41.48,25.21H35.39V28h4.47v7.2H38v-.65H31.07v.71H29.26V28h4.19V25.21h-6v-1.8h6V20.78l2.38.12c0,.15-.14.25-.45.31v2.21h6.09ZM38,32.79V29.74H31.07v3.05Z"/><path class="cls-2" d="M54,33.32h4.77v1.46H47.6V33.32h4.65v-.91H48.81V31h3.44v-.77c-1.26,0-2.41.09-3.32.11a.33.33,0,0,1-.26.23l-.57-1.67,1.66,0c.26-.38.54-.83.78-1.27H48.17c-.11,2.52-.52,5.6-1.84,7.67a6.94,6.94,0,0,0-1.64-1c1.54-2.38,1.66-5.88,1.66-8.34V21.5H57.93v4H48.2v.67H58.56v1.46H56a16.65,16.65,0,0,1,2.5,2.15l-1.53,1c-.15-.18-.35-.41-.58-.64l-2.18.09a.55.55,0,0,1-.18,0V31h3.5v1.43H54Zm2-10.33H48.2v1h7.88Zm-1.26,4.61H52.59c-.23.38-.54.83-.84,1.24L55,28.77c-.32-.26-.64-.51-.94-.72Z"/><path class="cls-2" d="M29.91,44.79l1.37.78a.52.52,0,0,1-.29.25,10.89,10.89,0,0,1-3.53,4.68A18.17,18.17,0,0,0,33,51.92a8.28,8.28,0,0,0-1.18,1.8,16.5,16.5,0,0,1-6.19-2,19.94,19.94,0,0,1-6.17,2,7.1,7.1,0,0,0-1-1.78,21.14,21.14,0,0,0,5.51-1.41,11.82,11.82,0,0,1-2.61-3.35l1.38-.48H19.81V44.85h4.87v-1.8H18.9V41.23h5.77v-2l2.35.12c0,.15-.14.25-.43.31v1.6h5.86v1.83H26.59v1.8h3Zm-6.8,1.87a8.28,8.28,0,0,0,2.61,2.85,8.2,8.2,0,0,0,2.72-2.85Z"/><path class="cls-2" d="M42.65,42.66a.43.43,0,0,1-.26.23,15.26,15.26,0,0,1-1.9,3.45c.75.52,2,1.46,2.38,1.73L41.79,49.6A17.84,17.84,0,0,0,40.25,48V53.7H38.42v-5a12,12,0,0,1-1.84,1.44,7.1,7.1,0,0,0-.89-1.73,11.92,11.92,0,0,0,4.48-4.7h-4V42.06h2.26V39.21l2.24.12c0,.15-.14.25-.41.29v2.44h.91l.28-.08Zm4.62,8.76h3.3v1.81H41.79V51.42h3.58V45.76H42.42V44h2.95V39.34l2.32.14c0,.15-.14.25-.41.29V44H50.2v1.78H47.27Z"/></g></g></svg>