<svg xmlns="http://www.w3.org/2000/svg" width="14.734" height="19.216" viewBox="0 0 14.734 19.216">
  <g id="icon-tel" transform="translate(-59.712 0.001)">
    <path id="パス_33459" data-name="パス 33459" d="M61.029.814c-1.32.856-1.58,3.533-1.081,5.715a19.7,19.7,0,0,0,2.605,6.124,20.464,20.464,0,0,0,4.529,4.876c1.789,1.345,4.338,2.2,5.659,1.343a6.687,6.687,0,0,0,1.7-1.828l-.709-1.094-1.951-3.008c-.145-.223-1.054-.019-1.516.242a4.4,4.4,0,0,0-1.2,1.3c-.427.247-.785,0-1.532-.343a9.1,9.1,0,0,1-2.774-2.925,9.1,9.1,0,0,1-1.54-3.726c-.009-.823-.088-1.25.312-1.539a4.4,4.4,0,0,0,1.675-.562c.427-.315.984-1.062.839-1.285L64.1,1.1,63.394,0A6.687,6.687,0,0,0,61.029.814Z" transform="translate(0 0)" fill="#1c2843"/>
  </g>
</svg>
