<svg xmlns="http://www.w3.org/2000/svg" width="19.264" height="33.217" viewBox="0 0 19.264 33.217">
  <g id="icon-pin" transform="translate(-0.124 1279.71)">
    <path id="パス_33456" data-name="パス 33456" d="M9.166-1279.7l-.4.039a9.69,9.69,0,0,0-7.051,4.141A8.826,8.826,0,0,0,.2-1269.47c.483,3.128,2.936,9.359,7.094,18.015.886,1.844,2.432,4.962,2.461,4.962s1.576-3.117,2.461-4.962c3.538-7.364,5.905-13.129,6.772-16.5a8.471,8.471,0,0,0,.3-3.819A9.233,9.233,0,0,0,16.1-1277.4a9.755,9.755,0,0,0-5.234-2.252A16.338,16.338,0,0,0,9.166-1279.7Zm1.5,5.265a4.215,4.215,0,0,1,3.28,3.219,2.954,2.954,0,0,1,.062.813,3.664,3.664,0,0,1-.048.779,4.237,4.237,0,0,1-3.4,3.291,5.309,5.309,0,0,1-1.621,0,4.237,4.237,0,0,1-3.4-3.291,5.422,5.422,0,0,1,.013-1.587,3.906,3.906,0,0,1,.341-.964,4.226,4.226,0,0,1,2.982-2.265,3,3,0,0,1,.964-.068A3.326,3.326,0,0,1,10.669-1274.436Z" transform="translate(0 0)" fill="#fff"/>
  </g>
</svg>
