<svg xmlns="http://www.w3.org/2000/svg" width="122.312" height="77.936" viewBox="0 0 122.312 77.936">
  <g id="page-top" transform="translate(13.221)">
    <path id="パス_33457" data-name="パス 33457" d="M121.834,75.293a5.01,5.01,0,0,1-3.285,1.031h-2.871V80.92h-2.783V68.14h5.511a5.249,5.249,0,0,1,3.419,1.031,4.345,4.345,0,0,1,.009,6.122Zm-3.644-4.856h-2.512v3.68h2.495q2.189,0,2.19-1.831Q120.362,70.437,118.189,70.437ZM100.006,81.226a6.014,6.014,0,0,1-4.578-1.84,7.656,7.656,0,0,1-.008-9.711,6.021,6.021,0,0,1,4.6-1.84,5.908,5.908,0,0,1,4.531,1.857,7.645,7.645,0,0,1,0,9.694A5.96,5.96,0,0,1,100.006,81.226Zm2.514-9.918a3.3,3.3,0,0,0-5.054.008,4.962,4.962,0,0,0-.943,3.178,5.042,5.042,0,0,0,.933,3.231,3.157,3.157,0,0,0,2.568,1.185,3,3,0,0,0,2.512-1.185,5.15,5.15,0,0,0,.916-3.231A4.988,4.988,0,0,0,102.52,71.308ZM84.264,80.92H81.446V70.527H77.6V68.14h10.5v2.388H84.264ZM52.654,68.14H62.24v2.3h-6.8V73.22h6.247v2.207H55.436v3.142h6.929v2.35H52.654ZM43.7,79.467a4.708,4.708,0,0,1-3.842,1.759,5.576,5.576,0,0,1-4.343-1.849,6.876,6.876,0,0,1-1.67-4.792A6.789,6.789,0,0,1,35.6,69.747a5.926,5.926,0,0,1,4.523-1.876,5.663,5.663,0,0,1,3.7,1.229,4.792,4.792,0,0,1,1.759,3.24H42.871a2.476,2.476,0,0,0-.933-1.562,2.985,2.985,0,0,0-1.849-.555,3.028,3.028,0,0,0-2.512,1.157,6.1,6.1,0,0,0,.009,6.444,3.129,3.129,0,0,0,2.593,1.157,3.01,3.01,0,0,0,2.154-.8,2.929,2.929,0,0,0,.9-2.092H40.376V74.01h5.368v6.91H43.966Zm-19.028-1.4H19.913L18.872,80.92H16l4.864-12.8h2.89l4.864,12.8H25.676Zm-2.369-6.8L20.6,76.02h3.392ZM6.433,76.325H3.56V80.92H.779V68.14h5.51a5.251,5.251,0,0,1,3.42,1.031,4.348,4.348,0,0,1,.009,6.122A5.01,5.01,0,0,1,6.433,76.325Zm-.359-5.887H3.56v3.68H6.055q2.191,0,2.19-1.831Q8.245,70.437,6.074,70.437Z" transform="translate(-14 -3.29)" fill="#1d2843" fill-rule="evenodd"/>
    <path id="パス_33458" data-name="パス 33458" d="M44.1,0h1V51h-1Z" transform="translate(3.679)" fill="#4f4f4f" fill-rule="evenodd"/>
  </g>
</svg>
