<svg xmlns="http://www.w3.org/2000/svg" width="240" height="70" viewBox="0 0 240 70">
  <g id="btn-01" transform="translate(-217 -202)">
    <g id="パス_3" data-name="パス 3" transform="translate(217 202)" fill="none">
      <path d="M0,0H240V70H0Z" stroke="none"/>
      <path d="M 2 2 L 2 68 L 238 68 L 238 2 L 2 2 M 0 0 L 240 0 L 240 70 L 0 70 L 0 0 Z" stroke="none" fill="#fff"/>
    </g>
    <path id="パス_4" data-name="パス 4" d="M18.02-1.08a49.738,49.738,0,0,0-6.66-6,24.185,24.185,0,0,0,3.3-5.6,3.733,3.733,0,0,1,.56-.98l-.84-.86a3.729,3.729,0,0,1-1.28.16l-7.14.08H5.44a9.4,9.4,0,0,1-1.58-.1l.04,1.62a13.457,13.457,0,0,1,2.06-.16l6.68-.1a3.4,3.4,0,0,0,.48-.02.424.424,0,0,1-.06.14c-.04.1-.06.12-.1.24A21.677,21.677,0,0,1,5.82-3.64a16.1,16.1,0,0,1-4.06,2.3A4.451,4.451,0,0,1,2.74-.02a25.755,25.755,0,0,0,3.92-2.4A21.71,21.71,0,0,0,10.48-6,37.2,37.2,0,0,1,16.88.18ZM30.48-16.52a10.923,10.923,0,0,1-1.18,2.74,17.4,17.4,0,0,1-5.1,5.7,3.669,3.669,0,0,1,1.16.96,19.865,19.865,0,0,0,4.76-5.32l7-.1a23.889,23.889,0,0,1-2.78,5.8,28.572,28.572,0,0,0-4.42-3.1L29-8.82a25.156,25.156,0,0,1,4.48,3.24,14.031,14.031,0,0,1-3.46,3.16A18.029,18.029,0,0,1,25.88-.24,3.554,3.554,0,0,1,26.86,1a22.307,22.307,0,0,0,6.32-4.12,22.758,22.758,0,0,0,5.22-8.6,4.488,4.488,0,0,1,.58-1.32l-.9-.9a3.465,3.465,0,0,1-1.16.2c-5.9.06-5.9.06-6.18.1a10.175,10.175,0,0,0,.62-1.1,6.615,6.615,0,0,1,.7-1.32Zm17.26,5.96a16.5,16.5,0,0,1,1.88,4.48l1.36-.46A21.962,21.962,0,0,0,49-10.98Zm4.12-.84A17.546,17.546,0,0,1,53.7-7.02l1.32-.46a20.056,20.056,0,0,0-1.94-4.3Zm6.94-.02v.2a8.406,8.406,0,0,1-.22,1.36,15.09,15.09,0,0,1-1.7,4.3A12.837,12.837,0,0,1,50.54-.34,4.046,4.046,0,0,1,51.46.78,14.5,14.5,0,0,0,58.08-5a18.007,18.007,0,0,0,1.76-4.48,11.8,11.8,0,0,1,.44-1.62ZM80.7-14.2a2.688,2.688,0,0,1-1.28.16H69.58a12.019,12.019,0,0,1-2.26-.14v1.62a13.907,13.907,0,0,1,2.24-.12H79.74c-1.14,4.48-3.02,7.34-6.3,9.52a14.86,14.86,0,0,1-4.52,2.12A3.785,3.785,0,0,1,69.9.36,18.367,18.367,0,0,0,76.18-3.4a17.041,17.041,0,0,0,5.02-8.68c.28-1.02.28-1.02.42-1.24ZM88.28-2.76a7.087,7.087,0,0,1-1.34.2l.36,1.3a14.2,14.2,0,0,1,1.48-.44c.86-.22,1.6-.44,2.82-.84V-.56a17.163,17.163,0,0,1-.1,2.08h1.34a13.206,13.206,0,0,1-.12-2.04V-14.76a4.849,4.849,0,0,1,.8.04v-1.24a8.25,8.25,0,0,1-1.44.08H88.6a8.778,8.778,0,0,1-1.44-.1v1.3a6.128,6.128,0,0,1,1.12-.1Zm1.14-12.02H91.6v3.14H89.42Zm0,4.18H91.6v2.88H89.42Zm0,3.92H91.6v3.04c-.92.3-1.36.42-2.18.62Zm7.96-7.84v-.26a9.1,9.1,0,0,1,.12-1.72H96.12a7.369,7.369,0,0,1,.12,1.7v.28h-1.2a7.677,7.677,0,0,1-1.48-.1v1.14a6.314,6.314,0,0,1,1-.06c.24,1.08.36,1.76.5,2.78h-.4a10.936,10.936,0,0,1-1.5-.08v1.26a9.547,9.547,0,0,1,1.52-.1h6a26.508,26.508,0,0,0,.94,6.2A14.5,14.5,0,0,1,97.4.44a3.509,3.509,0,0,1,.86.86,15.48,15.48,0,0,0,3.76-3.54c.78,2,1.72,3.18,2.54,3.18.4,0,.74-.28.96-.82a10.263,10.263,0,0,0,.54-2.74,3.6,3.6,0,0,1-1.08-.74,15.618,15.618,0,0,1-.2,2.1c-.1.52-.22.84-.3.84l-.1-.08a1.9,1.9,0,0,1-.6-.76,12.173,12.173,0,0,1-.94-2.16,17,17,0,0,0,1.68-3.36A8.4,8.4,0,0,1,105-7.96l-1.1-.68a13.148,13.148,0,0,1-1.44,3.84,30.372,30.372,0,0,1-.66-4.88h1.42a13.809,13.809,0,0,1,2.2.12v-1.32a11.868,11.868,0,0,1-2.2.12h-1.46c-.04-.96-.06-2.52-.06-3.5a11.218,11.218,0,0,1,.12-2.22h-1.34a10.794,10.794,0,0,1,.08,1.32c0,2.4.02,3.08.08,4.4H98.46a23.453,23.453,0,0,0,.66-2.76,5.907,5.907,0,0,1,.84.04V-14.6a8.566,8.566,0,0,1-1.54.08Zm-1.34,3.76a24.612,24.612,0,0,0-.44-2.78h2.46a14.363,14.363,0,0,1-.62,2.78ZM99.4-3.04V-6.52a14.683,14.683,0,0,1,.08-1.92,9.271,9.271,0,0,1-1.4.08H95.56a8.43,8.43,0,0,1-1.42-.08,18.021,18.021,0,0,1,.08,1.9v4.82a13.037,13.037,0,0,1-.1,1.86H95.3V-1.44h2.48c.92,0,1.14,0,1.64.04,0-.24-.02-.86-.02-1.08ZM95.32-7.36h3.02v1.9H95.32ZM95.3-4.52h3.04v2.08H95.3Zm7.12-10.32a12.008,12.008,0,0,1,1.74,2.94l1-.66a14.829,14.829,0,0,0-1.82-2.84ZM113.22-2.6a11.641,11.641,0,0,1,1.94-.1h1.68a5.514,5.514,0,0,1-1.9,1.74,10.954,10.954,0,0,1-4.16,1.3,3.62,3.62,0,0,1,.72,1.12,11.323,11.323,0,0,0,4.36-1.68,6.684,6.684,0,0,0,2.3-2.48h4.44a9.076,9.076,0,0,1-.38,2.26c-.18.52-.42.66-1.26.66a12.566,12.566,0,0,1-2.22-.26,3.628,3.628,0,0,1,.3,1.22c.8.08,1.5.12,2.08.12,1.16,0,1.74-.24,2.04-.82a10.337,10.337,0,0,0,.66-3.3c.02-.3.04-.4.06-.58a17.2,17.2,0,0,0,3.16,1.32,3.92,3.92,0,0,1,.72-1.12,11.807,11.807,0,0,1-5.44-2.44h3.06a13.83,13.83,0,0,1,2.02.12V-6.8a13.941,13.941,0,0,1-2.04.12h-8.18a6.817,6.817,0,0,0,.8-1.14h5.18c.6,0,1.12.02,1.6.06-.04-.48-.06-.88-.06-1.36v-2.5c0-.5.02-.92.06-1.38a13.838,13.838,0,0,1-1.58.06h-9.4A13.838,13.838,0,0,1,112.2-13c.04.5.06.92.06,1.38v2.5c0,.46-.02.84-.06,1.36.48-.04.98-.06,1.58-.06h2.94a6.816,6.816,0,0,1-.86,1.14H111.5a14.132,14.132,0,0,1-2.04-.12v1.28a14.415,14.415,0,0,1,2.02-.12h3.28a14.368,14.368,0,0,1-2.44,1.48,15.374,15.374,0,0,1-2.9,1.06,3.246,3.246,0,0,1,.78,1.06,22.613,22.613,0,0,0,3.02-1.42Zm7.6-3.04a13.2,13.2,0,0,0,2.54,1.94c-.4.02-.4.02-1.44.02h-3.34l.14-.42.3-1-1.42-.1a4.157,4.157,0,0,1-.28,1.52h-2.26c-.7,0-.82,0-1.38-.04a12.6,12.6,0,0,0,2.56-1.92ZM113.42-12h10.12v1.16H113.42Zm0,2.04h10.12v1.22H113.42Zm1.4-5.36h-3.2a14.523,14.523,0,0,1-2.04-.12v1.3a11.315,11.315,0,0,1,2.02-.16h3.22a6.637,6.637,0,0,1-.08.96h1.36a4.177,4.177,0,0,1-.06-.96h4.6a4.465,4.465,0,0,1-.06.98h1.36a5.257,5.257,0,0,1-.08-.98h3.34a11.315,11.315,0,0,1,2.02.16v-1.3a14.523,14.523,0,0,1-2.04.12h-3.32v-.2a6.835,6.835,0,0,1,.08-1.18h-1.38a7.138,7.138,0,0,1,.08,1.18v.2h-4.6v-.2a6.784,6.784,0,0,1,.06-1.18h-1.36a6.891,6.891,0,0,1,.08,1.16Zm26.44,6.6h4.26a10.348,10.348,0,0,1,1.8.1v-1.2a9.429,9.429,0,0,1-1.8.12h-4.26v-1.5h4.26a10.633,10.633,0,0,1,1.8.1v-1.2a9.429,9.429,0,0,1-1.8.12h-4.26v-1.5h5.26a10.281,10.281,0,0,1,1.74.1v-1.24a11.315,11.315,0,0,1-1.84.1h-5.06a13.13,13.13,0,0,0,1.22-1.92l-1.3-.3a7.41,7.41,0,0,1-1.2,2.22h-4.32a21.591,21.591,0,0,0,1.32-1.92l-1.38-.34a6.44,6.44,0,0,1-.72,1.44,13.543,13.543,0,0,1-3.88,3.96,3.743,3.743,0,0,1,.8.98,13.064,13.064,0,0,0,2.22-2.06c-.06.62-.08,1.24-.08,1.96v3.36A11.632,11.632,0,0,1,133.98-6a12.522,12.522,0,0,1,1.38-.04h4.4v1.46h-5.98a13.638,13.638,0,0,1-2.2-.12v1.32a17.538,17.538,0,0,1,2.2-.12h4.94a11.1,11.1,0,0,1-2.56,1.78A15.618,15.618,0,0,1,131.3-.1a4.2,4.2,0,0,1,.8,1.2,20.292,20.292,0,0,0,3.82-1.38,12.415,12.415,0,0,0,3.9-2.82,4.715,4.715,0,0,0-.02.58,1.856,1.856,0,0,0-.02.4c-.02.22-.02.4-.02.54V0a6.016,6.016,0,0,1-.12,1.48h1.48A5.284,5.284,0,0,1,141-.02V-1.58a14.294,14.294,0,0,0-.06-1.52,16.825,16.825,0,0,0,7.8,4.3,5.051,5.051,0,0,1,.76-1.24,16.611,16.611,0,0,1-7.52-3.46h5.04a18.223,18.223,0,0,1,2.24.12V-4.7a12.106,12.106,0,0,1-2.24.12H141V-6.04h5.5a11.194,11.194,0,0,1,1.82.1v-1.2a11.166,11.166,0,0,1-1.84.1h-5.22Zm-1.18,0v1.68h-4.82V-8.72Zm0-.98h-4.82v-1.5h4.82Zm0-2.48h-4.82v-1.5h4.82Zm21.5-.7h-5.56a10.936,10.936,0,0,1-1.5-.08,12.608,12.608,0,0,1,.1,1.58v5.46a12.663,12.663,0,0,1-.12,1.78h1.44V-5.5h5.64V-.84a13.78,13.78,0,0,1-.14,2.28h1.6a11.292,11.292,0,0,1-.14-2.28V-5.5h5.96v1.36h1.44a12.663,12.663,0,0,1-.12-1.78v-5.46a9.545,9.545,0,0,1,.1-1.58,10.7,10.7,0,0,1-1.52.08H162.9v-1.76a11.929,11.929,0,0,1,.14-2.04h-1.6a11.523,11.523,0,0,1,.14,2.08Zm0,1.2V-6.7h-5.64v-4.98ZM162.9-6.7v-4.98h5.96V-6.7Z" transform="translate(251 245)" fill="#fff"/>
  </g>
</svg>
