<svg xmlns="http://www.w3.org/2000/svg" width="240" height="70" viewBox="0 0 240 70">
  <g id="btn-02" transform="translate(-217 -196)">
    <g id="パス_1" data-name="パス 1" transform="translate(217 196)" fill="none">
      <path d="M0,0H240V70H0Z" stroke="none"/>
      <path d="M 2 2 L 2 68 L 238 68 L 238 2 L 2 2 M 0 0 L 240 0 L 240 70 L 0 70 L 0 0 Z" stroke="none" fill="#fff"/>
    </g>
    <path id="パス_2" data-name="パス 2" d="M3.9-13.94c-1,0-1.54-.02-2.2-.08a14.789,14.789,0,0,1,.08,1.68v1.66a11.038,11.038,0,0,1-.1,1.42H3.02v-3.6H16.98v3.6h1.36a8,8,0,0,1-.1-1.44v-1.64a12.311,12.311,0,0,1,.08-1.68,21.487,21.487,0,0,1-2.22.08H14.48a21.29,21.29,0,0,0,1.6-2.38l-1.28-.46a13.109,13.109,0,0,1-1.72,2.84h-2.1A23.784,23.784,0,0,0,9.56-16.8l-1.24.28a12.107,12.107,0,0,1,1.34,2.58H6.86A15.307,15.307,0,0,0,5.2-16.52L4-16.18a10.819,10.819,0,0,1,1.52,2.24ZM8.96-6.58A11.913,11.913,0,0,1,8-4.62H4.96A16.338,16.338,0,0,1,3.04-4.7a12.178,12.178,0,0,1,.1,1.88v2.3A14.545,14.545,0,0,1,3.02,1.4H4.38V.6h11.2v.82h1.36a10.919,10.919,0,0,1-.12-1.94v-2.3a11.713,11.713,0,0,1,.1-1.88,15.963,15.963,0,0,1-1.9.08H9.3a19.792,19.792,0,0,0,.96-1.96h3c1,0,1.42.02,2.14.08a10.354,10.354,0,0,1-.08-1.6V-9.82a13.075,13.075,0,0,1,.06-1.52,17.936,17.936,0,0,1-1.92.08H6.52a18.335,18.335,0,0,1-1.94-.08,9.545,9.545,0,0,1,.08,1.5V-8.1a11.578,11.578,0,0,1-.08,1.6,17.337,17.337,0,0,1,2.14-.08ZM5.88-10.22H14.1v2.6H5.88Zm-1.5,6.7h11.2v3H4.38Zm26.9-5.44V-7.5H27.32a15.24,15.24,0,0,1-2.14-.1v1.22a15.24,15.24,0,0,1,2.14-.1h3.96v1.54H25.54a15.26,15.26,0,0,1-2.26-.12v1.3a18.805,18.805,0,0,1,2.26-.12h4.9A15.166,15.166,0,0,1,23.02-.34,4.167,4.167,0,0,1,23.84.82c3.66-1.18,5.56-2.26,7.52-4.3-.06.78-.08,1.22-.08,1.68V-.48a13.215,13.215,0,0,1-.12,2.1H32.6a15.146,15.146,0,0,1-.12-2.08V-1.8c0-.44-.02-.8-.08-1.7a13.1,13.1,0,0,0,3.18,2.44A21.441,21.441,0,0,0,40.48.82a4.649,4.649,0,0,1,.78-1.24,15.805,15.805,0,0,1-7.94-3.46h5.24a19.043,19.043,0,0,1,2.26.12v-1.3a15.021,15.021,0,0,1-2.28.12H32.48V-6.48h4.2a15.557,15.557,0,0,1,2.16.1V-7.6a15.037,15.037,0,0,1-2.16.1h-4.2V-8.96h5.44a15.734,15.734,0,0,1,2.16.1V-10.1a15.037,15.037,0,0,1-2.16.1H35.08a22.785,22.785,0,0,0,1.08-2.26h2.36a21.329,21.329,0,0,1,2.26.1v-1.28a15.509,15.509,0,0,1-2.24.12h-1.2a19.884,19.884,0,0,0,1.5-2.24l-1.22-.52a12.851,12.851,0,0,1-1.58,2.76H34.12v-1.54a9.359,9.359,0,0,1,.12-1.68H32.88a11.623,11.623,0,0,1,.08,1.66v1.56H30.84v-1.56a11.27,11.27,0,0,1,.08-1.66H29.56a9.672,9.672,0,0,1,.12,1.68v1.54H28a11.877,11.877,0,0,0-1.78-2.66l-1.14.54a10.5,10.5,0,0,1,1.64,2.12H25.34a15.576,15.576,0,0,1-2.22-.12v1.28a21.329,21.329,0,0,1,2.26-.1H27.9A12.056,12.056,0,0,1,28.96-10h-2.9a14.557,14.557,0,0,1-2.14-.1v1.24a15.591,15.591,0,0,1,2.14-.1ZM30.18-10a16.44,16.44,0,0,0-.94-2.26H34.8A10.269,10.269,0,0,1,33.78-10Zm15.7,7.24a7.087,7.087,0,0,1-1.34.2l.36,1.3a14.2,14.2,0,0,1,1.48-.44c.86-.22,1.6-.44,2.82-.84V-.56a17.162,17.162,0,0,1-.1,2.08h1.34a13.207,13.207,0,0,1-.12-2.04V-14.76a4.849,4.849,0,0,1,.8.04v-1.24a8.25,8.25,0,0,1-1.44.08H46.2a8.778,8.778,0,0,1-1.44-.1v1.3a6.128,6.128,0,0,1,1.12-.1Zm1.14-12.02H49.2v3.14H47.02Zm0,4.18H49.2v2.88H47.02Zm0,3.92H49.2v3.04c-.92.3-1.36.42-2.18.62Zm7.96-7.84v-.26a9.1,9.1,0,0,1,.12-1.72H53.72a7.369,7.369,0,0,1,.12,1.7v.28h-1.2a7.677,7.677,0,0,1-1.48-.1v1.14a6.315,6.315,0,0,1,1-.06c.24,1.08.36,1.76.5,2.78h-.4a10.936,10.936,0,0,1-1.5-.08v1.26a9.547,9.547,0,0,1,1.52-.1h6a26.508,26.508,0,0,0,.94,6.2A14.5,14.5,0,0,1,55,.44a3.509,3.509,0,0,1,.86.86,15.48,15.48,0,0,0,3.76-3.54c.78,2,1.72,3.18,2.54,3.18.4,0,.74-.28.96-.82a10.263,10.263,0,0,0,.54-2.74,3.6,3.6,0,0,1-1.08-.74,15.619,15.619,0,0,1-.2,2.1c-.1.52-.22.84-.3.84l-.1-.08a1.9,1.9,0,0,1-.6-.76,12.173,12.173,0,0,1-.94-2.16,17,17,0,0,0,1.68-3.36,8.4,8.4,0,0,1,.48-1.18l-1.1-.68A13.148,13.148,0,0,1,60.06-4.8a30.372,30.372,0,0,1-.66-4.88h1.42a13.809,13.809,0,0,1,2.2.12v-1.32a11.868,11.868,0,0,1-2.2.12H59.36c-.04-.96-.06-2.52-.06-3.5a11.219,11.219,0,0,1,.12-2.22H58.08a10.8,10.8,0,0,1,.08,1.32c0,2.4.02,3.08.08,4.4H56.06a23.454,23.454,0,0,0,.66-2.76,5.907,5.907,0,0,1,.84.04V-14.6a8.565,8.565,0,0,1-1.54.08Zm-1.34,3.76a24.613,24.613,0,0,0-.44-2.78h2.46a14.363,14.363,0,0,1-.62,2.78ZM57-3.04V-6.52a14.684,14.684,0,0,1,.08-1.92,9.271,9.271,0,0,1-1.4.08H53.16a8.43,8.43,0,0,1-1.42-.08,18.022,18.022,0,0,1,.08,1.9v4.82a13.038,13.038,0,0,1-.1,1.86H52.9V-1.44h2.48c.92,0,1.14,0,1.64.04,0-.24-.02-.86-.02-1.08ZM52.92-7.36h3.02v1.9H52.92ZM52.9-4.52h3.04v2.08H52.9Zm7.12-10.32a12.008,12.008,0,0,1,1.74,2.94l1-.66a14.829,14.829,0,0,0-1.82-2.84ZM70.82-2.6a11.641,11.641,0,0,1,1.94-.1h1.68a5.514,5.514,0,0,1-1.9,1.74A10.954,10.954,0,0,1,68.38.34a3.62,3.62,0,0,1,.72,1.12A11.323,11.323,0,0,0,73.46-.22a6.684,6.684,0,0,0,2.3-2.48H80.2a9.077,9.077,0,0,1-.38,2.26c-.18.52-.42.66-1.26.66a12.566,12.566,0,0,1-2.22-.26,3.628,3.628,0,0,1,.3,1.22c.8.08,1.5.12,2.08.12,1.16,0,1.74-.24,2.04-.82a10.337,10.337,0,0,0,.66-3.3c.02-.3.04-.4.06-.58a17.2,17.2,0,0,0,3.16,1.32,3.919,3.919,0,0,1,.72-1.12,11.807,11.807,0,0,1-5.44-2.44h3.06A13.83,13.83,0,0,1,85-5.52V-6.8a13.941,13.941,0,0,1-2.04.12H74.78a6.817,6.817,0,0,0,.8-1.14h5.18c.6,0,1.12.02,1.6.06-.04-.48-.06-.88-.06-1.36v-2.5c0-.5.02-.92.06-1.38a13.838,13.838,0,0,1-1.58.06h-9.4A13.838,13.838,0,0,1,69.8-13c.04.5.06.92.06,1.38v2.5c0,.46-.02.84-.06,1.36.48-.04.98-.06,1.58-.06h2.94a6.816,6.816,0,0,1-.86,1.14H69.1a14.132,14.132,0,0,1-2.04-.12v1.28a14.415,14.415,0,0,1,2.02-.12h3.28a14.368,14.368,0,0,1-2.44,1.48,15.374,15.374,0,0,1-2.9,1.06,3.246,3.246,0,0,1,.78,1.06,22.613,22.613,0,0,0,3.02-1.42Zm7.6-3.04A13.2,13.2,0,0,0,80.96-3.7c-.4.02-.4.02-1.44.02H76.18l.14-.42.3-1L75.2-5.2a4.157,4.157,0,0,1-.28,1.52H72.66c-.7,0-.82,0-1.38-.04a12.6,12.6,0,0,0,2.56-1.92ZM71.02-12H81.14v1.16H71.02Zm0,2.04H81.14v1.22H71.02Zm1.4-5.36h-3.2a14.523,14.523,0,0,1-2.04-.12v1.3a11.315,11.315,0,0,1,2.02-.16h3.22a6.636,6.636,0,0,1-.08.96H73.7a4.177,4.177,0,0,1-.06-.96h4.6a4.465,4.465,0,0,1-.06.98h1.36a5.257,5.257,0,0,1-.08-.98H82.8a11.315,11.315,0,0,1,2.02.16v-1.3a14.523,14.523,0,0,1-2.04.12H79.46v-.2a6.835,6.835,0,0,1,.08-1.18H78.16a7.139,7.139,0,0,1,.08,1.18v.2h-4.6v-.2a6.784,6.784,0,0,1,.06-1.18H72.34a6.89,6.89,0,0,1,.08,1.16Zm26.44,6.6h4.26a10.348,10.348,0,0,1,1.8.1v-1.2a9.429,9.429,0,0,1-1.8.12H98.86v-1.5h4.26a10.633,10.633,0,0,1,1.8.1v-1.2a9.429,9.429,0,0,1-1.8.12H98.86v-1.5h5.26a10.281,10.281,0,0,1,1.74.1v-1.24a11.315,11.315,0,0,1-1.84.1H98.96a13.132,13.132,0,0,0,1.22-1.92l-1.3-.3a7.411,7.411,0,0,1-1.2,2.22H93.36a21.592,21.592,0,0,0,1.32-1.92l-1.38-.34a6.44,6.44,0,0,1-.72,1.44,13.543,13.543,0,0,1-3.88,3.96,3.743,3.743,0,0,1,.8.98,13.064,13.064,0,0,0,2.22-2.06c-.06.62-.08,1.24-.08,1.96v3.36A11.63,11.63,0,0,1,91.58-6a12.522,12.522,0,0,1,1.38-.04h4.4v1.46H91.38a13.638,13.638,0,0,1-2.2-.12v1.32a17.537,17.537,0,0,1,2.2-.12h4.94a11.1,11.1,0,0,1-2.56,1.78A15.618,15.618,0,0,1,88.9-.1a4.2,4.2,0,0,1,.8,1.2A20.292,20.292,0,0,0,93.52-.28a12.415,12.415,0,0,0,3.9-2.82,4.717,4.717,0,0,0-.02.58,1.854,1.854,0,0,0-.02.4c-.02.22-.02.4-.02.54V0a6.015,6.015,0,0,1-.12,1.48h1.48a5.284,5.284,0,0,1-.12-1.5V-1.58a14.3,14.3,0,0,0-.06-1.52,16.824,16.824,0,0,0,7.8,4.3,5.051,5.051,0,0,1,.76-1.24A16.611,16.611,0,0,1,99.58-3.5h5.04a18.223,18.223,0,0,1,2.24.12V-4.7a12.106,12.106,0,0,1-2.24.12H98.6V-6.04h5.5a11.194,11.194,0,0,1,1.82.1v-1.2a11.166,11.166,0,0,1-1.84.1H98.86Zm-1.18,0v1.68H92.86V-8.72Zm0-.98H92.86v-1.5h4.82Zm0-2.48H92.86v-1.5h4.82Zm21.5-.7h-5.56a10.936,10.936,0,0,1-1.5-.08,12.608,12.608,0,0,1,.1,1.58v5.46a12.661,12.661,0,0,1-.12,1.78h1.44V-5.5h5.64V-.84a13.781,13.781,0,0,1-.14,2.28h1.6a11.292,11.292,0,0,1-.14-2.28V-5.5h5.96v1.36h1.44a12.661,12.661,0,0,1-.12-1.78v-5.46a9.546,9.546,0,0,1,.1-1.58,10.7,10.7,0,0,1-1.52.08H120.5v-1.76a11.93,11.93,0,0,1,.14-2.04h-1.6a11.524,11.524,0,0,1,.14,2.08Zm0,1.2V-6.7h-5.64v-4.98ZM120.5-6.7v-4.98h5.96V-6.7Z" transform="translate(272 239)" fill="#fff"/>
  </g>
</svg>
