<svg xmlns="http://www.w3.org/2000/svg" xmlns:xlink="http://www.w3.org/1999/xlink" width="934.1" height="53.631" viewBox="0 0 934.1 53.631">
  <defs>
    <linearGradient id="linear-gradient" x1="1" y1="1" x2="-0.196" y2="0.5" gradientUnits="objectBoundingBox">
      <stop offset="0" stop-color="#fff"/>
      <stop offset="0.734" stop-color="#fff" stop-opacity="0"/>
      <stop offset="1" stop-color="gray" stop-opacity="0"/>
    </linearGradient>
    <linearGradient id="linear-gradient-2" y1="0.5" x2="0.767" y2="0.5" gradientUnits="objectBoundingBox">
      <stop offset="0" stop-color="#fff"/>
      <stop offset="1" stop-color="#fff" stop-opacity="0"/>
    </linearGradient>
  </defs>
  <g id="recruit" transform="translate(-53 -0.584)">
    <path id="パス_33451" data-name="パス 33451" d="M0,43.1H320.1V46H0Z" transform="translate(53)" fill-rule="evenodd" opacity="0.541" fill="url(#linear-gradient)"/>
    <path id="パス_33452" data-name="パス 33452" d="M613.1,43.1h374V46h-374Z" fill-rule="evenodd" opacity="0.541" fill="url(#linear-gradient-2)"/>
    <path id="パス_33453" data-name="パス 33453" d="M578.422,36.335v17.37h-4.71V36.335h-6.42v-3.99h17.55v3.99Zm-26.1-3.99h4.71v21.36h-4.71Zm-20.94,21.78q-4.74,0-6.975-2.205t-2.235-6.795V32.345h4.68v12.78a6.226,6.226,0,0,0,.99,3.87q.99,1.26,3.6,1.26,2.52,0,3.435-1.26a6.613,6.613,0,0,0,.915-3.87V32.345h4.68v12.84q0,4.59-2.2,6.765T531.382,54.125ZM506.393,52.49q-.121-.734-.21-1.89t-.09-1.275a5.138,5.138,0,0,0-1.125-3.12,4.442,4.442,0,0,0-3.135-.87h-4.17v8.37h-4.65V32.345h10.62a8.462,8.462,0,0,1,5.19,1.5,5.326,5.326,0,0,1,2.01,4.56,5.869,5.869,0,0,1-.9,3.255,4.969,4.969,0,0,1-2.49,1.995q2.759.572,3.15,4.98c0,.1.019.411.06.93s.079.936.12,1.245.09.686.15,1.125a4.734,4.734,0,0,0,.27,1.11,1.689,1.689,0,0,0,.42.66h-4.86A4.194,4.194,0,0,1,506.393,52.49Zm-1.215-15.855a5.853,5.853,0,0,0-2.865-.6h-4.65v5.91h4.44a6.259,6.259,0,0,0,3.045-.615,2.523,2.523,0,0,0,1.1-2.415A2.388,2.388,0,0,0,505.178,36.635Zm-32.835,13.62q4.29,0,4.89-4.8h4.65a9.731,9.731,0,0,1-2.82,6.39,9.318,9.318,0,0,1-6.75,2.37,9.693,9.693,0,0,1-7.485-3.075,11.539,11.539,0,0,1-2.835-8.145,11.478,11.478,0,0,1,2.865-7.98,9.776,9.776,0,0,1,7.635-3.18,9.621,9.621,0,0,1,6.39,2.16,7.712,7.712,0,0,1,2.85,5.49h-4.59a4.489,4.489,0,0,0-1.605-2.745,4.936,4.936,0,0,0-3.135-.975,5.011,5.011,0,0,0-3.285,1.1,5.861,5.861,0,0,0-1.875,2.685,10.765,10.765,0,0,0-.54,3.48,8.34,8.34,0,0,0,1.53,5.265A4.936,4.936,0,0,0,472.343,50.255Zm-36.78-17.91h16.02v3.84h-11.37v4.65h10.44v3.69h-10.44v5.25h11.58v3.93h-16.23Zm-15.9,20.145q-.12-.734-.21-1.89t-.09-1.275a5.126,5.126,0,0,0-1.125-3.12,4.44,4.44,0,0,0-3.135-.87h-4.17v8.37h-4.65V32.345H416.9a8.457,8.457,0,0,1,5.19,1.5,5.323,5.323,0,0,1,2.01,4.56,5.868,5.868,0,0,1-.9,3.255,4.965,4.965,0,0,1-2.49,1.995q2.76.572,3.15,4.98,0,.152.06.93t.12,1.245q.06.466.15,1.125a4.733,4.733,0,0,0,.27,1.11,1.7,1.7,0,0,0,.42.66h-4.86A4.257,4.257,0,0,1,419.663,52.49Zm-1.215-15.855a5.851,5.851,0,0,0-2.865-.6h-4.65v5.91h4.44a6.254,6.254,0,0,0,3.045-.615,2.521,2.521,0,0,0,1.1-2.415A2.386,2.386,0,0,0,418.448,36.635Z" fill="#fff" fill-rule="evenodd"/>
    <path id="パス_33454" data-name="パス 33454" d="M572.5,15.182h-1.01a11.223,11.223,0,0,0,2.124-6.861,11.132,11.132,0,0,0-2.124-6.831h1.01a10.854,10.854,0,0,1,2.183,6.846A10.9,10.9,0,0,1,572.5,15.182Zm-5.525-2.688.758-.549a18.324,18.324,0,0,1,3.059,1.886l-.787.609A18.8,18.8,0,0,0,566.979,12.494Zm-.7-8.688h3.683v7.812h-7.158V3.806h2.48c.149-.49.282-1.069.386-1.574h-3.623V1.341h8.494v.891h-3.787C566.638,2.693,566.459,3.287,566.281,3.806Zm-2.524,7.01h5.227V9.242h-5.227Zm0-2.346h5.227V6.91h-5.227Zm0-3.877v1.56h5.227V4.593Zm-3.832,4.872c.743-.253,1.5-.505,2.257-.773l.164.862c-1.842.7-3.787,1.41-5.035,1.841a.274.274,0,0,1-.178.253l-.534-1.1c.638-.193,1.44-.446,2.331-.743V3.316H556.9V2.381h5.093v.935h-2.064Zm-9.49,2.732a41.152,41.152,0,0,1,4.559,1.4l-.609.832a40.347,40.347,0,0,0-5-1.589,18.8,18.8,0,0,1-7.01,1.559,2.871,2.871,0,0,0-.4-.891,20.852,20.852,0,0,0,5.97-1.01c-.965-.223-1.945-.431-2.955-.624l-.342.446-.935-.342c.475-.609,1.069-1.4,1.648-2.227h-3.594V8.885h4.188c.356-.519.7-1.039.995-1.5h-3.891V3.539H546.4V2.188h-4.515V1.282H555.35v.906h-4.6V3.539h3.445V7.385h-6.668l.713.193c-.045.1-.149.149-.356.134-.238.357-.49.758-.773,1.173h8.346v.862h-3.029A6.267,6.267,0,0,1,550.435,12.2ZM546.4,4.386h-2.391V6.539H546.4Zm4.351,2.153h2.45V4.386h-2.45Zm-3.4,0h2.435V4.386h-2.435Zm0-3h2.435V2.188h-2.435Zm-.832,6.208c-.326.475-.668.95-.995,1.4,1.248.222,2.495.475,3.683.757A5.494,5.494,0,0,0,551.3,9.747ZM539.979,14.1a16.95,16.95,0,0,1-5.91-3.1v3.4h-.995V11.039a17.636,17.636,0,0,1-5.807,3.193,4.056,4.056,0,0,0-.668-.847,16.414,16.414,0,0,0,5.6-2.732h-5.3V9.821h6.178V8.781h-4.337V4.371a15.321,15.321,0,0,1-1.544,1.559,2.82,2.82,0,0,0-.7-.7A13.815,13.815,0,0,0,530.089.584l1.247.208c-.029.1-.119.178-.312.193-.237.445-.519.935-.846,1.44h3.015A14.293,14.293,0,0,0,534.039.6l1.277.252c-.029.1-.133-.751-.326.163-.194.4-.491.936-.773,1.411h5.02v.832h-4.931V4.311h4.381v.743h-4.381V6.123h4.411v.743h-4.411v1.1h5.6v.816h-5.613a.55.55,0,0,1-.223.075v.965h6.267v.832h-5.361a15.739,15.739,0,0,0,5.658,2.628A3.849,3.849,0,0,0,539.979,14.1ZM533.341,3.257H529.7V4.311h3.638Zm0,1.8H529.7V6.123h3.638Zm0,1.812H529.7v1.1h3.638Zm-8.332,5.183a10.9,10.9,0,0,1-2.242-1.04l-.03.178c-.3,3.119-.594,3.253-2.02,3.253-.371,0-.861-.015-1.351-.06a2.069,2.069,0,0,0-.238-.8c.728.074,1.441.089,1.678.089.253,0,.387-.015.5-.133a4.021,4.021,0,0,0,.461-1.931h-3.609c-.624,1.351-1.841,2.317-4.5,2.866a2.146,2.146,0,0,0-.49-.742c2.2-.416,3.342-1.1,3.965-2.124h-3.044v-.535a15.619,15.619,0,0,1-1.871.832,2.36,2.36,0,0,0-.609-.713,10.625,10.625,0,0,0,3.46-1.8h-3.163V8.559h4.039a4.563,4.563,0,0,0,.654-.921H513.96v-4.1h9.43v4.1h-5.479a.289.289,0,0,1-.253.089,6.539,6.539,0,0,1-.535.832h8.2V9.39h-3.386a10.115,10.115,0,0,0,3.728,1.857A3.766,3.766,0,0,0,525.009,12.049Zm-2.584-7.842H514.9v1.04h7.529Zm0,2.748V5.9H514.9V6.955ZM520.777,9.39H516.4a10.02,10.02,0,0,1-1.857,1.426h2.956a6.444,6.444,0,0,0,.267-1.173l1.188.119c-.015.089-.119.163-.3.193-.059.3-.119.594-.193.861h3.579c.119-.015.163-.03.208-.03l.252.045A8.776,8.776,0,0,1,520.777,9.39Zm.817-6.074h-.981V2.544h-4.069v.772h-.98V2.544h-3.549V1.7h3.549V.613l1.277.075c-.015.1-.1.178-.3.208v.8h4.069V.613l1.278.075c-.015.1-.09.178-.3.208v.8h3.653v.846h-3.653ZM509.815,15.182a10.827,10.827,0,0,1-2.2-6.816,10.931,10.931,0,0,1,2.2-6.876h1.01A11.068,11.068,0,0,0,508.7,8.38a11.2,11.2,0,0,0,2.123,6.8ZM501.87,3.762c-2.228,1.336-4.381,3.727-4.381,5.643,0,2.079,1.455,3.312,5.138,3.787l-.49,1.04c-4.218-.609-5.792-2.183-5.792-4.827,0-2.094,2.064-4.633,4.782-6.341-1.574.1-6.014.445-7.93.624a.452.452,0,0,1-.327.237l-.119-1.307c1.114-.044,10.262-.7,12.193-.712l.015,1.113C504.765,3,504.587,3,504.409,3A4.277,4.277,0,0,0,501.87,3.762ZM485.7,3.94l.653-.8a8.156,8.156,0,0,1,4.188,6.044l-1.1.342A7.412,7.412,0,0,0,485.7,3.94Zm-7.8,4.233c-.045-.565-.059-1.189-.059-1.857a35.557,35.557,0,0,1,.222-3.995l1.53.3c-.03.134-.193.223-.4.238a24.454,24.454,0,0,0-.282,3.7c0,.549.029,1.084.059,1.559.178,2.525,1.2,4.054,2.347,4.04.594,0,1.366-1.515,1.9-3.179a5.132,5.132,0,0,0,.862.639c-.683,2.005-1.545,3.638-2.777,3.668C479.415,13.311,478.108,11.024,477.9,8.173Zm-11.688,3.7c4.589-.43,7.885-1.678,7.885-4.544,0-2.332-1.6-3.341-3.564-3.341A25.2,25.2,0,0,0,463.242,5.8a.4.4,0,0,1-.268.342L462.5,4.772c.342-.075.832-.208,1.53-.431a24.4,24.4,0,0,1,6.608-1.426c2.495,0,4.619,1.233,4.619,4.352,0,3.683-3.639,5.108-8.658,5.613A4.863,4.863,0,0,0,466.212,11.87Zm-7.946.743a20.614,20.614,0,0,1-2.762-.163c-1.827-.268-2.673-1.278-2.673-2.466a4.535,4.535,0,0,1,1.4-2.866l.965.416a3.509,3.509,0,0,0-1.262,2.331c0,1.723,2.524,1.723,4.069,1.723.623,0,1.292-.03,1.915-.074l-.014,1.054C459.365,12.6,458.815,12.613,458.266,12.613Zm-5.213-8.094-.029-1.024A48.511,48.511,0,0,0,459.5,2.93l.089,1.04A56.065,56.065,0,0,1,453.053,4.519Zm-3.326,8.614a1.587,1.587,0,0,0,.074.46l-1.054.193a16.276,16.276,0,0,1-.654-5.109,43.455,43.455,0,0,1,.787-7.232l1.56.267c-.045.164-.193.253-.49.238a35.6,35.6,0,0,0-.787,6.683,16.307,16.307,0,0,0,.193,2.94c.282-.727.92-2.287,1.128-2.806l.624.653c-.609,1.5-1.054,2.346-1.262,3.015A2.515,2.515,0,0,0,449.727,13.133Zm-8.436,1.188a3.874,3.874,0,0,0-.356-.966c.549.015,1.084.03,1.514.03,1.233,0,1.307,0,1.307-.416V9.747h-4.277v4.514h-.965V9.747h-3.906a8.661,8.661,0,0,1-1.9,4.737,3.609,3.609,0,0,0-.757-.668c1.663-1.871,1.827-4.545,1.827-6.668V1.683h10.974V12.969C444.751,14.336,444.1,14.35,441.291,14.321ZM438.514,2.633h-3.757V5.262h3.757Zm0,3.564h-3.757v.951c0,.52-.015,1.069-.06,1.648h3.817Zm5.242-3.564h-4.277V5.262h4.277Zm0,3.564h-4.277V8.8h4.277ZM430.42,13.712a12.34,12.34,0,0,1-3.668-4.218v4.842H425.8V9.465a11.314,11.314,0,0,1-3.995,4.262,3.914,3.914,0,0,0-.7-.787,10.013,10.013,0,0,0,4.01-4.01h-3.059V8.158l-1.857.564v4.455c0,1.173-.579,1.248-2.569,1.248a3.178,3.178,0,0,0-.312-.966c.327.015.624.015.891.015,1.04,0,1.04-.015,1.04-.312V9.019l-1.693.505a.289.289,0,0,1-.208.238L416.995,8.6c.623-.148,1.41-.356,2.257-.594V4.653h-2.109V3.717h2.109V.613L420.5.688c-.014.119-.089.178-.3.208V3.717H422v.936h-1.8v3.1c.594-.164,1.2-.342,1.812-.505l.1.772H425.8V6.331l1.233.074c-.015.1-.089.178-.282.208V8.024h4.009V8.93H427.4a10.414,10.414,0,0,0,3.7,4.01A3.709,3.709,0,0,0,430.42,13.712Zm-.015-10.4a28.673,28.673,0,0,1-1.946,3.505s-.712-.356-.727-.356a24.082,24.082,0,0,0,1.886-3.758l1.1.476A.332.332,0,0,1,430.4,3.316Zm-4.47,2.614a10.279,10.279,0,0,0-.743-2.851l.862-.149a9.582,9.582,0,0,1,.787,2.822Zm-2.495.416a11.354,11.354,0,0,0-1.1-2.822l.8-.208A9.982,9.982,0,0,1,424.3,6.093Zm6.475-4.856a39.471,39.471,0,0,1-7.678,1.247,3.311,3.311,0,0,0-.267-.817A35.4,35.4,0,0,0,429.41.628l.787.817C430.167,1.49,430.137,1.49,429.915,1.49Zm135.49,10.96a.413.413,0,0,1-.282.1,12.079,12.079,0,0,1-3.639,1.872,5.584,5.584,0,0,0-.638-.713A11.8,11.8,0,0,0,564.44,11.9Z" fill="#fff" fill-rule="evenodd"/>
  </g>
</svg>
