<svg xmlns="http://www.w3.org/2000/svg" width="480" height="93" viewBox="0 0 480 93">
  <g id="text03" transform="translate(45.78 0.019)">
    <rect id="長方形_2" data-name="長方形 2" width="480" height="92" transform="translate(-45.78 0.981)" fill="none"/>
    <g id="グループ_53553" data-name="グループ 53553" transform="translate(0)">
      <path id="お客様のパートナーであり_ひとつのチームであること_" data-name="お客様のパートナーであり、ひとつのチームであること。" d="M3028.93,3992.95a17.2,17.2,0,0,1-2.88.11,3.277,3.277,0,0,0,.08.65.221.221,0,0,0,.26.21,19.244,19.244,0,0,0,2.54-.15c0,.96,0,1.98.01,2.97-.84.48-1.63.93-2.24,1.22a6.167,6.167,0,0,1-1.35.48,5.43,5.43,0,0,0,.429.85.266.266,0,0,0,.211.15.333.333,0,0,0,.189-.09c.13-.09.27-.19.48-.31a10.859,10.859,0,0,1,2.01,1.55,1.291,1.291,0,0,0,.52.5,3.149,3.149,0,0,0,.59-.09c.14-.05.15-.13.15-.32,0-.23-.06-.67-.08-1.32-.05-.86-.07-1.62-.07-2.12a8.056,8.056,0,0,1,3.45-1.17,1.662,1.662,0,0,1,1.91,1.679,1.7,1.7,0,0,1-1.95,1.71,3.478,3.478,0,0,1-1.49-.3,1.922,1.922,0,0,1,.23.64.308.308,0,0,0,.189.359,3.644,3.644,0,0,0,1.11.17c1.75,0,2.88-.87,2.88-2.55a2.452,2.452,0,0,0-2.71-2.46,8.4,8.4,0,0,0-3.62,1.06c-.02-.92-.02-1.83.01-2.73a14.493,14.493,0,0,0,2.16-.57c.11-.05.16-.06.16-.18a3.924,3.924,0,0,0-.06-.59c-.01-.12-.07-.14-.18-.09a13.2,13.2,0,0,1-2.04.58c.02-.44.03-.83.06-1.21a1.375,1.375,0,0,1,.16-.7.322.322,0,0,0,.069-.19.208.208,0,0,0-.16-.2,4.856,4.856,0,0,0-1.11-.21,6.02,6.02,0,0,1,.11,1.3C3028.96,3992.06,3028.94,3992.45,3028.93,3992.95Zm.01,4.68c.05.76.06,1.37.09,1.96,0,.13-.04.16-.14.1-.58-.32-1.06-.61-1.72-1C3027.83,3998.29,3028.31,3997.99,3028.94,3997.63Zm4.68-5.08a4.86,4.86,0,0,1,2.65,1.51.107.107,0,0,0,.18,0,3.969,3.969,0,0,0,.44-.57.112.112,0,0,0,0-.18,4.945,4.945,0,0,0-2.74-1.449.162.162,0,0,0-.2.11,5.472,5.472,0,0,0-.33.58Zm11.68.37c.11-.12.21-.25.31-.37a1.482,1.482,0,0,1,.29-.31.266.266,0,0,0,.14-.18.157.157,0,0,0-.13-.13,4.315,4.315,0,0,0-.72-.24,3.715,3.715,0,0,1-.36.64,9.556,9.556,0,0,1-3.79,2.9,1.346,1.346,0,0,1,.42.41.254.254,0,0,0,.15.15.661.661,0,0,0,.22-.09,12.5,12.5,0,0,0,2.2-1.47,9.763,9.763,0,0,0,1.87,1.5,18.875,18.875,0,0,1-5.56,1.81,1.612,1.612,0,0,1,.34.52c.11.23.11.23.39.16.71-.16,1.35-.33,1.93-.51v.04c0,.08.03.39.03,1.19v1.04c0,1.33-.03,1.7-.03,1.76,0,.09.01.1.11.1h.62c.1,0,.12-.01.12-.1v-.55h5.47v.58c0,.09.02.1.11.1h.63c.1,0,.11-.01.11-.1,0-.07-.03-.43-.03-1.79v-1.16c0-.68.03-.99.03-1.07s-.01-.1-.11-.1c-.08,0-.54.03-1.85.03h-3.27c-1.18,0-1.65-.01-1.79-.03a14.373,14.373,0,0,0,3.48-1.49,20.68,20.68,0,0,0,5.55,1.87c.26.05.26.05.36-.18a1.993,1.993,0,0,1,.36-.6,20.421,20.421,0,0,1-5.55-1.58,13.873,13.873,0,0,0,1.92-1.68,1.259,1.259,0,0,1,.41-.32.2.2,0,0,0,.14-.19,1.1,1.1,0,0,0-.62-.65.268.268,0,0,0-.13.04.712.712,0,0,1-.331.05h-3.44Zm4.02,7.55h-5.47v-2.08h5.47Zm-.7-6.88a11.587,11.587,0,0,1-2,1.69,9.98,9.98,0,0,1-2.08-1.51l.17-.18h3.91Zm3.44-2.09c0-.35.02-.56.02-.63,0-.1-.01-.11-.11-.11-.07,0-.54.03-1.91.03h-3.26v-.5a1.671,1.671,0,0,1,.07-.54.694.694,0,0,0,.08-.27c0-.05-.05-.09-.16-.11-.28-.02-.61-.05-.92-.07a3.829,3.829,0,0,1,.1.95v.54h-3.05c-1.36,0-1.85-.03-1.92-.03-.1,0-.11.01-.11.11,0,.08.03.28.03.72v.43c0,1.18-.03,1.35-.03,1.43,0,.1.01.11.11.11h.63c.09,0,.11-.01.11-.11v-1.94h9.5v1.94c0,.1.01.11.11.11h.62c.1,0,.11-.01.11-.11,0-.07-.02-.25-.02-1.43v-.52Zm13.83,4.43c1.37,0,1.83.03,1.91.03.1,0,.11-.01.11-.11v-.54c0-.1-.01-.11-.11-.11-.08,0-.54.03-1.91.03h-1.93v-1.25h1.17c1.26,0,1.66.03,1.73.03.1,0,.11-.02.11-.12v-.51c0-.1-.01-.11-.11-.11-.07,0-.47.03-1.73.03h-1.17v-1.19h1.55c1.32,0,1.77.02,1.83.02.12,0,.13-.01.13-.09v-.54c0-.1-.01-.12-.13-.12-.06,0-.51.03-1.83.03h-.45c.25-.39.52-.86.69-1.19a.669.669,0,0,1,.19-.26.316.316,0,0,0,.14-.179.2.2,0,0,0-.16-.16c-.24-.08-.46-.15-.72-.21a2.707,2.707,0,0,1-.19.59,13.637,13.637,0,0,1-.74,1.41h-2.07c-1.33,0-1.78-.03-1.86-.03-.1,0-.11.02-.11.12v.54c0,.08.01.09.11.09.08,0,.53-.02,1.86-.02h.98v1.19h-.79c-1.26,0-1.67-.03-1.74-.03-.1,0-.11.01-.11.11v.51c0,.1.01.12.11.12.07,0,.48-.03,1.74-.03h.79v1.25h-1.29c-1.37,0-1.84-.03-1.91-.03s-.1.01-.1.11v.54c0,.1.02.11.1.11s.54-.03,1.91-.03h1.29v2.03a26.511,26.511,0,0,1-3.07,1.68,5.089,5.089,0,0,1-.81.29c.13.28.25.54.36.73a.165.165,0,0,0,.13.13.256.256,0,0,0,.15-.11,1.718,1.718,0,0,1,.5-.31c.86-.46,1.83-1.01,2.74-1.61v1.6c0,.44-.09.54-.65.54a7.133,7.133,0,0,1-.91-.06,1.948,1.948,0,0,1,.25.59c.05.27.08.27.36.27a2.472,2.472,0,0,0,1.4-.23,1.034,1.034,0,0,0,.36-.99c0-.8-.03-2.16-.06-3.62a8.849,8.849,0,0,0,3.58,4.08.4.4,0,0,0,.2.1.232.232,0,0,0,.16-.17,1.837,1.837,0,0,1,.449-.47,9.838,9.838,0,0,1-2.6-1.93,14.618,14.618,0,0,0,1.13-.98.911.911,0,0,1,.41-.29.166.166,0,0,0,.14-.16.258.258,0,0,0-.11-.18,4.974,4.974,0,0,0-.57-.44,1.709,1.709,0,0,1-.331.48,10,10,0,0,1-1.11,1.04,8.956,8.956,0,0,1-1.18-2.01h1.79Zm-6.03-3.62c0-.11-.02-.12-.12-.12-.08,0-.34.03-1.24.03h-.11v-1.21a4.693,4.693,0,0,1,.06-1.18.452.452,0,0,0,.09-.25c0-.07-.06-.11-.17-.12a6.383,6.383,0,0,0-.87-.09,7.73,7.73,0,0,1,.11,1.65v1.2h-.42c-.93,0-1.19-.03-1.26-.03-.1,0-.11.01-.11.12v.54c0,.1.01.12.11.12.07,0,.33-.03,1.26-.03h.31a15,15,0,0,1-2.04,4.95,1.284,1.284,0,0,1,.36.54.152.152,0,0,0,.11.14.285.285,0,0,0,.14-.15,15.159,15.159,0,0,0,1.62-4.4c-.03,4.05-.14,7.52-.14,7.72,0,.09.02.1.11.1h.67c.08,0,.1-.01.1-.1,0-.2-.13-3.7-.14-7.91a12.141,12.141,0,0,0,.96,2.64.24.24,0,0,0,.12.16.217.217,0,0,0,.121-.16,2.078,2.078,0,0,1,.35-.52,9.225,9.225,0,0,1-1.43-3.01h.09c.9,0,1.16.03,1.24.03.1,0,.12-.02.12-.12v-.54Zm.44,4.36c-.13.12-.14.14-.06.21a5.983,5.983,0,0,1,1.17,1.29c.05.08.08.09.23-.06l.3-.28c.11-.11.11-.14.04-.2a7.186,7.186,0,0,0-1.22-1.24c-.07-.07-.1-.05-.22.06Zm1-6.95c-.17.08-.17.11-.1.18a4.768,4.768,0,0,1,.78,1.25c.04.11.07.11.23.01l.41-.22c.11-.07.11-.1.08-.17a6.566,6.566,0,0,0-.82-1.2c-.07-.09-.1-.09-.22-.03Zm16.78,2.39a3.461,3.461,0,0,1,3.58,3.5c0,2.32-1.58,3.8-4.32,4.35a1.675,1.675,0,0,1,.54.51.269.269,0,0,0,.36.15c3.01-.76,4.41-2.58,4.41-4.84,0-2.65-1.85-4.47-4.95-4.47a5.927,5.927,0,0,0-4.16,1.54,5.039,5.039,0,0,0-1.61,3.6c0,2.01.98,3.14,2.02,3.14a2.31,2.31,0,0,0,2.04-1.42,15.6,15.6,0,0,0,1.83-6.06h.26Zm-1.23.05a14.577,14.577,0,0,1-1.62,5.42,1.574,1.574,0,0,1-1.29,1.021c-.5,0-1.13-.66-1.13-2.17a4.292,4.292,0,0,1,1.34-2.99,4.638,4.638,0,0,1,2.7-1.28Zm20.5-1.61a1.4,1.4,0,1,0,1,.407,1.4,1.4,0,0,0-1-.407Zm0,.53a.875.875,0,1,1-.87.87.875.875,0,0,1,.87-.87Zm-10.76,7.57a1.927,1.927,0,0,1,.76.36.3.3,0,0,0,.43-.05,14.306,14.306,0,0,0,3.14-4.57,2.47,2.47,0,0,1,.48-.79c.13-.12.17-.27-.02-.38a4.979,4.979,0,0,0-1.1-.46,4.239,4.239,0,0,1-.44,1.56,11.839,11.839,0,0,1-3.25,4.329Zm7.16-5.34a17.773,17.773,0,0,1,3.44,5.23c.05.13.1.15.22.08a3.7,3.7,0,0,0,.649-.43.181.181,0,0,0,.061-.289,18.516,18.516,0,0,0-3.47-4.98.19.19,0,0,0-.29-.02c-.14.08-.38.25-.61.41Zm16.41,2.9c.93,0,1.96,0,3,.03.16.01.21-.02.21-.17.01-.22.01-.51,0-.72,0-.15-.05-.18-.21-.17-1.06.03-2.08.05-3.04.05h-4.26a25.214,25.214,0,0,1-3.06-.13,6.485,6.485,0,0,0,.14,1.06.224.224,0,0,0,.23.19,11.293,11.293,0,0,1,1.871-.139h5.12Zm12.66-4.2a6.044,6.044,0,0,1,.09-1.54c.07-.21.13-.36-.09-.42a5.952,5.952,0,0,0-1.16-.18,11.363,11.363,0,0,1,.16,2.22v6.17c0,.85-.02,1.93-.06,2.82,0,.15.04.19.2.19a4.089,4.089,0,0,0,.7,0c.16,0,.2-.04.18-.18-.01-.9-.04-1.98-.04-2.83v-3.21a15.578,15.578,0,0,1,4.04,1.85c.12.09.18.06.26-.05a3.927,3.927,0,0,0,.33-.68.144.144,0,0,0-.09-.22,19.722,19.722,0,0,0-4.52-1.93v-2.01Zm16.87,1.61c.01-.78.01-1.43.01-2.21a2.157,2.157,0,0,1,.14-.82.2.2,0,0,0-.11-.33,6.7,6.7,0,0,0-1.17-.15,6.674,6.674,0,0,1,.15,1.48c.02.78.02,1.29.02,2.04h-2.94c-.74,0-1.43,0-2.28-.07.02.28.06.67.09.83.01.16.04.2.18.18.66-.04,1.29-.07,1.99-.07h2.92a6.972,6.972,0,0,1-.89,3.61,7.29,7.29,0,0,1-3.11,2.59,2.039,2.039,0,0,1,.68.43.28.28,0,0,0,.39.05,8.026,8.026,0,0,0,2.94-2.69,7.733,7.733,0,0,0,.96-3.99h2.06c.77,0,1.65.03,2.36.05.17,0,.2-.03.2-.18.01-.18.01-.42,0-.61,0-.16-.05-.18-.21-.17-.79.03-1.61.03-2.36.03h-2.02Zm16.67,2.59c.93,0,1.96,0,3,.03.16.01.21-.02.21-.17.01-.22.01-.51,0-.72,0-.15-.05-.18-.21-.17-1.06.03-2.08.05-3.04.05h-4.26a25.264,25.264,0,0,1-3.06-.13,6.572,6.572,0,0,0,.14,1.06.224.224,0,0,0,.23.189,11.29,11.29,0,0,1,1.87-.139h5.12Zm15.07-3.91c-2.18,1.15-3.39,2.76-3.39,4.72,0,2.8,2.53,3.8,4.87,4,.16.02.2-.04.22-.19a3.345,3.345,0,0,0,.09-.67c0-.11-.04-.14-.22-.15-2.03-.17-4.04-.85-4.04-3.15,0-1.86,1.55-3.56,3.58-4.37a5.68,5.68,0,0,1,2.02-.41c.14-.02.18-.04.18-.17a4.049,4.049,0,0,0-.08-.69.184.184,0,0,0-.24-.11c-3.71.45-6.53.87-8.59,1.2a10.342,10.342,0,0,1-1.72.17,8.055,8.055,0,0,0,.379.98.267.267,0,0,0,.2.13.848.848,0,0,0,.26-.1,2.926,2.926,0,0,1,.83-.23c1.75-.36,3.55-.66,5.64-.99Zm1.16,2.3a5.974,5.974,0,0,1,1.61,1.78.107.107,0,0,0,.18.02l.41-.33a.1.1,0,0,0,.044-.07.1.1,0,0,0-.024-.08,6.8,6.8,0,0,0-1.56-1.68.108.108,0,0,0-.14-.01Zm1.22-.93a6.64,6.64,0,0,1,1.6,1.74.1.1,0,0,0,.17.02l.37-.33a.114.114,0,0,0,.061-.076.113.113,0,0,0-.021-.095,7.816,7.816,0,0,0-1.58-1.619.1.1,0,0,0-.08-.024.1.1,0,0,0-.07.044Zm9.57-3.8a3.292,3.292,0,0,1,.04.93c-.03.36-.07.72-.13,1.21a21.829,21.829,0,0,1-2.69-.02c.02.25.03.48.06.64a.155.155,0,0,0,.18.18,3.383,3.383,0,0,0,.65.039c.37,0,.91-.01,1.71-.05q-.075,1.035-.12,2.22c-2.13,1.02-3.28,2.72-3.28,4.13a1.224,1.224,0,0,0,1.25,1.42,4.711,4.711,0,0,0,2.6-1.18,5.415,5.415,0,0,0,.24.66.117.117,0,0,0,.18.07,1.862,1.862,0,0,0,.51-.28.132.132,0,0,0,.07-.2,7.278,7.278,0,0,1-.29-.78,15.147,15.147,0,0,0,2.69-3.8,2.468,2.468,0,0,1,2.39,2.41,2.542,2.542,0,0,1-1.2,2.21,7.964,7.964,0,0,1-2.7,1.02,1.317,1.317,0,0,1,.48.52.257.257,0,0,0,.34.15c2.08-.49,4.02-1.59,4.02-3.77a3.244,3.244,0,0,0-3.09-3.19c.07-.14.14-.24.2-.38a.647.647,0,0,0,.16-.27.356.356,0,0,0-.17-.229,3.35,3.35,0,0,0-.78-.37,3.087,3.087,0,0,1-.25,1.159,10.708,10.708,0,0,0-2.52.39c.01-.66.07-1.25.14-1.98a29.1,29.1,0,0,0,4.06-.61.16.16,0,0,0,.16-.17,2.251,2.251,0,0,0-.07-.52.119.119,0,0,0-.17-.1,29.662,29.662,0,0,1-3.86.6c.05-.32.09-.59.14-.89a1.345,1.345,0,0,1,.18-.56.281.281,0,0,0,.09-.19.214.214,0,0,0-.14-.169,3.825,3.825,0,0,0-1.079-.25Zm.74,8.14a15.3,15.3,0,0,1-.25-2.56,7.316,7.316,0,0,1,2.35-.43,13.377,13.377,0,0,1-2.1,2.99Zm-1.02-2.19a18.485,18.485,0,0,0,.3,2.78,4.049,4.049,0,0,1-2.13,1.08.568.568,0,0,1-.61-.65,4.143,4.143,0,0,1,2.44-3.211Zm14.66-5.77a7.592,7.592,0,0,1-.12,1.54,25.29,25.29,0,0,0-.32,3.26,8.246,8.246,0,0,0,.35,2.6.147.147,0,0,0,.13.129c.24-.02.55-.07.67-.09a.154.154,0,0,0,.1-.2,1.119,1.119,0,0,1,.091-.439,15.562,15.562,0,0,1,.88-1.831.3.3,0,0,0,.01-.38,2.02,2.02,0,0,1-.27-.57c-.32.63-.74,1.42-1.03,2a10.039,10.039,0,0,1-.06-1.57,21.726,21.726,0,0,1,.419-3.19,1.349,1.349,0,0,1,.25-.54.322.322,0,0,0,.05-.18.243.243,0,0,0-.18-.2,3.889,3.889,0,0,0-.969-.34Zm4.34.09a5.48,5.48,0,0,1,.28,1.45c.09,1.03.14,2.35.14,3.3a6.431,6.431,0,0,1-1.14,4.21,6.522,6.522,0,0,1-2.409,1.9,2.109,2.109,0,0,1,.71.38.264.264,0,0,0,.36.03,7.2,7.2,0,0,0,2.29-2.01,7.527,7.527,0,0,0,1.13-4.55c0-.98-.05-2.13-.16-3.67a2.265,2.265,0,0,1,.02-.66.2.2,0,0,0-.2-.27,4.649,4.649,0,0,0-1.02-.11Zm7.58,9a.226.226,0,0,0-.07.14.173.173,0,0,0,.1.09,10.192,10.192,0,0,1,2.55,2.6.176.176,0,0,0,.15.11.3.3,0,0,0,.14-.09l.5-.41a.186.186,0,0,0,.1-.17.252.252,0,0,0-.07-.16,9.5,9.5,0,0,0-2.66-2.5.239.239,0,0,0-.16-.08.222.222,0,0,0-.149.081Zm24.57-5.76a13.32,13.32,0,0,0,2.39,3.8c.08.1.16.14.25.06.16-.18.3-.34.43-.5a.182.182,0,0,0,.01-.27,11.726,11.726,0,0,1-2.32-2.96,8.78,8.78,0,0,1-.98-2.33.126.126,0,0,0-.17-.11c-.19.04-.46.11-.62.16-.11.04-.13.1-.09.25.06.17.12.29.16.43.04.2.09.45.14.74a17.74,17.74,0,0,1,.11,2.04,7.428,7.428,0,0,1-1.1,4.35,2.9,2.9,0,0,1-2.55,1.23c-1.55,0-2.39-1.09-2.39-2.85a6.853,6.853,0,0,1,1.791-4.43,5.254,5.254,0,0,1,1.43-1.26.229.229,0,0,0,.08-.4,2.982,2.982,0,0,0-.38-.43.194.194,0,0,0-.28.01,2.058,2.058,0,0,1-.89.29c-.66.11-1.3.21-1.82.25a5.162,5.162,0,0,1-1.37-.04,6.942,6.942,0,0,0,.25.89.258.258,0,0,0,.19.17c.1,0,.25-.06.48-.1.81-.14,1.51-.25,2.22-.39a10.241,10.241,0,0,0-1.13,1.24,7.443,7.443,0,0,0-1.44,4.27c0,2.3,1.21,3.7,3.34,3.7a3.7,3.7,0,0,0,3.03-1.32,6.97,6.97,0,0,0,1.331-4.41,13.8,13.8,0,0,0-.17-2.06Zm10.09-3.38a5.055,5.055,0,0,1,.3,1.36,24.591,24.591,0,0,0,.74,3.55c-1.76,1.07-2.71,2.09-2.71,3.42,0,1.9,1.74,2.43,4.14,2.43a32.18,32.18,0,0,0,3.69-.19c.15-.02.2-.07.19-.2a5.7,5.7,0,0,0-.08-.72.142.142,0,0,0-.2-.12,28.082,28.082,0,0,1-3.56.29c-2.1.01-3.26-.29-3.26-1.53,0-.97.65-1.69,2.05-2.51.95-.54,2.14-1.11,3.15-1.58a5.172,5.172,0,0,1,1.22-.44.229.229,0,0,0,.17-.39,5.545,5.545,0,0,0-.71-.78,2.228,2.228,0,0,1-.8.639c-.82.46-1.66.841-2.47,1.25a18.28,18.28,0,0,1-.54-2.8c-.05-.31-.07-.59-.09-.89,0-.22.07-.35.07-.49a.2.2,0,0,0-.16-.18,6.177,6.177,0,0,0-1.139-.12Zm11.94,3.8a5.592,5.592,0,0,0,.6.95.346.346,0,0,0,.26.17.551.551,0,0,0,.27-.12,4.128,4.128,0,0,1,.94-.49,14.943,14.943,0,0,1,5.22-1.48,2.481,2.481,0,0,1,2.78,2.521,3.144,3.144,0,0,1-1.98,2.94,10.9,10.9,0,0,1-3.92,1.08,2.193,2.193,0,0,1,.61.65.286.286,0,0,0,.34.17,11.525,11.525,0,0,0,3.72-1.18,3.819,3.819,0,0,0,2.27-3.62c0-2.05-1.41-3.41-3.71-3.41a15.321,15.321,0,0,0-4.7,1.05,11.943,11.943,0,0,1-2.7.77Zm22.01-1.69a3.467,3.467,0,0,1,3.58,3.5c0,2.32-1.59,3.8-4.33,4.35a1.487,1.487,0,0,1,.54.51.271.271,0,0,0,.36.15c3.01-.76,4.41-2.58,4.41-4.84,0-2.65-1.84-4.47-4.95-4.47a5.926,5.926,0,0,0-4.16,1.54,5.039,5.039,0,0,0-1.61,3.6c0,2.01.98,3.14,2.02,3.14a2.3,2.3,0,0,0,2.04-1.42,15.426,15.426,0,0,0,1.83-6.06h.27Zm-1.24.05a14.584,14.584,0,0,1-1.62,5.42,1.573,1.573,0,0,1-1.29,1.02c-.5,0-1.12-.66-1.12-2.17a4.277,4.277,0,0,1,1.33-2.99,4.636,4.636,0,0,1,2.7-1.28Zm13.07,2.46c-.83,0-1.69-.02-2.66-.09.01.28.06.6.08.79s.07.24.22.24c.77-.06,1.59-.08,2.32-.08h2.57a6.579,6.579,0,0,1-.57,2.63,5.628,5.628,0,0,1-2.47,2.62,2.481,2.481,0,0,1,.85.36.209.209,0,0,0,.31,0,6.406,6.406,0,0,0,2.24-2.67,8.158,8.158,0,0,0,.62-2.94h1.85c.91,0,1.76.01,2.63.04.15,0,.17-.03.17-.2s.01-.41,0-.61c0-.14-.02-.18-.15-.16-.78.04-1.77.07-2.63.07h-1.84c0-.32.01-.55.01-.91,0-.19.02-.37.03-.55a.975.975,0,0,1,.1-.39.172.172,0,0,0-.13-.28,10.041,10.041,0,0,0-1.15-.18,3.708,3.708,0,0,1,.15,1.07c.02.35.02.88,0,1.24h-2.55Zm5.56-4.41a2.57,2.57,0,0,1-.93.49,15.882,15.882,0,0,1-2.48.68,28.79,28.79,0,0,1-4.03.53,1.785,1.785,0,0,1,.48.6.232.232,0,0,0,.25.18,31.074,31.074,0,0,0,3.61-.52c.98-.18,1.91-.43,2.9-.7a7.616,7.616,0,0,1,.79-.22c.22-.03.32-.1.32-.2a.479.479,0,0,0-.17-.28,4.368,4.368,0,0,0-.74-.561Zm14.68,6c.93,0,1.96,0,3,.03.17.01.21-.02.21-.17.01-.22.01-.51,0-.72,0-.15-.04-.18-.21-.17-1.06.03-2.08.05-3.04.05h-4.26a25.216,25.216,0,0,1-3.06-.13,7.939,7.939,0,0,0,.14,1.06.224.224,0,0,0,.229.189,11.461,11.461,0,0,1,1.88-.139h5.11Zm12.56-5.92a8.16,8.16,0,0,1-.43,2.13c-.47,1.53-1.48,4.25-2.48,6.62a10.046,10.046,0,0,1-1.64.01,11.774,11.774,0,0,0,.33,1.16c.09.19.25.18.45.05a4.382,4.382,0,0,1,1.41-.26c2.46-.27,4.65-.5,6.83-.84.2.38.4.8.58,1.18.07.16.14.18.25.13.19-.1.4-.21.61-.33a.19.19,0,0,0,.07-.28,20.59,20.59,0,0,0-2.69-4.29c-.09-.11-.14-.15-.28-.07-.21.11-.43.27-.65.39a15.3,15.3,0,0,1,1.68,2.43c-1.83.28-4.04.47-5.91.62.97-2.19,1.91-4.71,2.59-6.74a2.812,2.812,0,0,1,.5-1.01c.15-.18.14-.33.01-.42a5.075,5.075,0,0,0-1.231-.48Zm17.91,2.01c-2.18,1.15-3.38,2.76-3.38,4.72,0,2.8,2.52,3.8,4.86,4,.16.02.2-.04.23-.19a4.176,4.176,0,0,0,.08-.67c0-.11-.04-.14-.22-.15-2.03-.17-4.04-.85-4.04-3.15,0-1.86,1.56-3.56,3.58-4.37a5.742,5.742,0,0,1,2.02-.41c.14-.02.19-.04.19-.17a4.079,4.079,0,0,0-.09-.69.177.177,0,0,0-.23-.11c-3.72.45-6.54.87-8.6,1.2a10.319,10.319,0,0,1-1.72.17,6.718,6.718,0,0,0,.39.98.234.234,0,0,0,.189.13.774.774,0,0,0,.26-.1,3.02,3.02,0,0,1,.841-.23c1.74-.36,3.55-.659,5.63-.99Zm1.17,2.3a6.073,6.073,0,0,1,1.6,1.78.108.108,0,0,0,.18.021l.41-.33a.094.094,0,0,0,.02-.15,6.8,6.8,0,0,0-1.56-1.68.108.108,0,0,0-.14-.01Zm1.22-.93a6.766,6.766,0,0,1,1.59,1.74c.06.08.11.08.17.02l.37-.33a.106.106,0,0,0,.04-.17,7.819,7.819,0,0,0-1.58-1.62.1.1,0,0,0-.15.02Zm9.56-3.8a3.29,3.29,0,0,1,.04.93c-.03.36-.07.72-.13,1.21a21.782,21.782,0,0,1-2.69-.02c.02.25.03.48.06.64a.155.155,0,0,0,.18.18,3.41,3.41,0,0,0,.65.04c.38,0,.92-.01,1.71-.05-.04.69-.09,1.43-.11,2.22-2.14,1.02-3.29,2.72-3.29,4.13a1.224,1.224,0,0,0,1.25,1.42,4.712,4.712,0,0,0,2.6-1.18,5.469,5.469,0,0,0,.24.659.117.117,0,0,0,.18.071,1.868,1.868,0,0,0,.51-.28.132.132,0,0,0,.07-.2c-.11-.28-.2-.49-.29-.78a14.894,14.894,0,0,0,2.69-3.8,2.468,2.468,0,0,1,2.39,2.41,2.559,2.559,0,0,1-1.19,2.21,8.019,8.019,0,0,1-2.71,1.02,1.446,1.446,0,0,1,.49.52.247.247,0,0,0,.33.15c2.08-.49,4.02-1.59,4.02-3.77a3.244,3.244,0,0,0-3.09-3.19c.07-.14.14-.24.21-.38a.732.732,0,0,0,.15-.27.356.356,0,0,0-.169-.23,3.243,3.243,0,0,0-.771-.37,3.288,3.288,0,0,1-.25,1.16,10.713,10.713,0,0,0-2.53.39c.02-.66.07-1.25.14-1.98a29.144,29.144,0,0,0,4.06-.611.161.161,0,0,0,.116-.051.159.159,0,0,0,.043-.119,2.237,2.237,0,0,0-.07-.52.119.119,0,0,0-.17-.1,29.556,29.556,0,0,1-3.85.6c.04-.32.08-.59.13-.889a1.52,1.52,0,0,1,.18-.56.281.281,0,0,0,.09-.19.213.213,0,0,0-.14-.17,3.82,3.82,0,0,0-1.08-.25Zm.75,8.14a13.449,13.449,0,0,1-.25-2.56,7.2,7.2,0,0,1,2.341-.43,13.7,13.7,0,0,1-2.09,2.989Zm-1.03-2.19a18.485,18.485,0,0,0,.3,2.78,4.049,4.049,0,0,1-2.13,1.08.573.573,0,0,1-.61-.65,4.143,4.143,0,0,1,2.44-3.211Zm15.59-.21c1.39-1.41,2.32-2.38,3.55-3.68a1.517,1.517,0,0,1,.66-.49.277.277,0,0,0,.2-.259.358.358,0,0,0-.09-.24,3.748,3.748,0,0,0-.6-.58.375.375,0,0,0-.25-.111.414.414,0,0,0-.19.09,1.455,1.455,0,0,1-.43.13c-1.22.23-2.36.39-3.46.5a5.024,5.024,0,0,1-1.22-.02,3.99,3.99,0,0,0,.34.96.24.24,0,0,0,.22.17.939.939,0,0,0,.26-.071,2.2,2.2,0,0,1,.49-.129c1.23-.23,2.31-.44,3.46-.62-1.06,1.26-1.9,2.15-2.7,3.02a39.02,39.02,0,0,1-3.13,3.1c-.1.08-.12.13-.06.2.14.18.35.39.51.56.1.1.17.08.28-.03a14.474,14.474,0,0,1,1.22-1.14,6.382,6.382,0,0,1,3.82-1.561,2.243,2.243,0,0,1,2.39,2.27,2.564,2.564,0,0,1-2.02,2.531,2.351,2.351,0,0,0-2.36-1.99,1.518,1.518,0,0,0-1.62,1.42c0,.88.75,1.63,2.41,1.63,2.94,0,4.58-1.49,4.58-3.56a2.952,2.952,0,0,0-3.23-3.041,5.33,5.33,0,0,0-2.98.99Zm2.4,4.79a5.555,5.555,0,0,1-.9.07c-.93,0-1.43-.39-1.43-.85a.74.74,0,0,1,.85-.65,1.607,1.607,0,0,1,1.48,1.43Zm11.09-4.11a2.879,2.879,0,0,0-.571,1.64c0,1.79,1.621,2.61,4.321,2.61a20.149,20.149,0,0,0,4.2-.36c.14-.03.19-.07.18-.18-.03-.22-.09-.57-.13-.72-.02-.12-.07-.13-.19-.1a17.268,17.268,0,0,1-3.98.4c-2.28,0-3.55-.55-3.55-1.69a2.183,2.183,0,0,1,.37-1.08c.06-.09.04-.14-.04-.18-.19-.11-.42-.24-.61-.34Zm.39-5.17c-.02.24-.03.53-.03.71,0,.14.04.18.13.19a14.374,14.374,0,0,0,2.81.25c.43,0,1.04-.01,1.5-.051a18.489,18.489,0,0,0-2.39,1.38,1.593,1.593,0,0,1,.57.28.316.316,0,0,0,.39-.03,9.362,9.362,0,0,1,3.59-1.581.175.175,0,0,0,.2-.21,5.268,5.268,0,0,0-.04-.62.15.15,0,0,0-.068-.114.152.152,0,0,0-.132-.016c-.96.09-2.07.13-3.06.13a16.342,16.342,0,0,1-3.47-.32Zm16.37-1.12a5.045,5.045,0,0,1,.3,1.36,24.526,24.526,0,0,0,.74,3.55c-1.76,1.07-2.7,2.09-2.7,3.42,0,1.9,1.73,2.43,4.13,2.43a32.124,32.124,0,0,0,3.69-.19c.15-.02.21-.07.19-.2a5.656,5.656,0,0,0-.08-.72.142.142,0,0,0-.2-.12,28.033,28.033,0,0,1-3.56.29c-2.09.01-3.26-.29-3.26-1.53,0-.97.65-1.69,2.05-2.51.95-.54,2.14-1.11,3.15-1.58a5.369,5.369,0,0,1,1.22-.44.228.228,0,0,0,.17-.39,5.515,5.515,0,0,0-.71-.78,2.227,2.227,0,0,1-.8.64c-.82.46-1.65.84-2.47,1.25a18.348,18.348,0,0,1-.54-2.8c-.04-.31-.07-.59-.09-.89,0-.22.07-.35.07-.49a.2.2,0,0,0-.16-.18,5.959,5.959,0,0,0-1.14-.121Zm13.47,8.21a1.941,1.941,0,1,0,1.381.558,1.924,1.924,0,0,0-1.381-.558Zm0,.69a1.232,1.232,0,1,1-.873.364,1.235,1.235,0,0,1,.873-.364Z" transform="translate(-3025.13 -3909.38)" fill="#1d2843" fill-rule="evenodd"/>
      <path id="WORK" d="M3151.43,3966.86h6.36l4.8-19.44,4.88,19.44h6.24l7.68-28.48h-6.16l-4.72,19.6-4.92-19.6h-5.88l-5,19.36-4.56-19.36h-6.28Zm45.86-25.06q-3.87,4.1-3.86,10.86,0,6.675,3.88,10.78a14.663,14.663,0,0,0,20.34,0q3.855-4.11,3.86-10.78a15.23,15.23,0,0,0-3.86-10.82,13.178,13.178,0,0,0-10.1-4.14A13.4,13.4,0,0,0,3197.29,3941.8Zm15.82,3.64a11.131,11.131,0,0,1,2.08,7.1,11.494,11.494,0,0,1-2.04,7.2,6.693,6.693,0,0,1-5.6,2.64,7.037,7.037,0,0,1-5.72-2.64,11.239,11.239,0,0,1-2.08-7.2,11.056,11.056,0,0,1,2.1-7.08,7.34,7.34,0,0,1,11.26-.02Zm23.32,21.42h6.2V3955.7h5.56c2,0,3.39.38,4.18,1.16a6.905,6.905,0,0,1,1.5,4.16c0,.1.04.67.12,1.7s.17,1.86.28,2.52a5.36,5.36,0,0,0,.48,1.62h6.48a2.226,2.226,0,0,1-.56-.88,6.417,6.417,0,0,1-.36-1.48c-.08-.59-.15-1.09-.2-1.5s-.11-.97-.16-1.66-.08-1.11-.08-1.24c-.35-3.92-1.75-6.14-4.2-6.64a6.677,6.677,0,0,0,3.32-2.66,7.835,7.835,0,0,0,1.2-4.34,7.109,7.109,0,0,0-2.68-6.081,11.242,11.242,0,0,0-6.92-2h-14.16v28.48Zm12.4-23.56a7.721,7.721,0,0,1,3.82.8,3.181,3.181,0,0,1,1.42,3.04c0,1.6-.49,2.67-1.46,3.22a8.456,8.456,0,0,1-4.06.82h-5.92v-7.88h6.2Zm44.07-4.92-11.2,11.84v-11.84h-6.16v28.48h6.16v-9.2l3.64-3.6,8.64,12.8h7.84l-12.2-17.24,11.16-11.24Z" transform="translate(-3028.65 -3909.38)" fill="#1d2843" fill-rule="evenodd"/>
      <path id="事業案内" d="M3199.81,3917.86h-4.49a9.8,9.8,0,0,1-1.64-.09v.95a10.766,10.766,0,0,1,1.64-.08h4.49v1.08h-3.64a9.13,9.13,0,0,1-1.44-.07v.93a9.964,9.964,0,0,1,1.47-.08h3.61v1.23c0,.33-.13.41-.67.41a13.792,13.792,0,0,1-1.86-.15,2.379,2.379,0,0,1,.26.94c.84.05,1.11.06,1.42.06,1.45,0,1.75-.21,1.75-1.24v-1.25h4.02v.62h.98a8.94,8.94,0,0,1-.09-1.5v-.98a10.1,10.1,0,0,1,1.59.08v-.95a7.3,7.3,0,0,1-1.59.09v-.63a12.216,12.216,0,0,1,.04-1.24,15.875,15.875,0,0,1-1.68.06h-3.27v-.98h3.47a10.274,10.274,0,0,1,1.21.06,7.825,7.825,0,0,1-.06-1v-.66a8.14,8.14,0,0,1,.06-1.02,8.663,8.663,0,0,1-1.23.06h-3.45v-.99h4.62a13.541,13.541,0,0,1,1.7.09v-.99a11.509,11.509,0,0,1-1.73.09h-4.59a4.892,4.892,0,0,1,.11-1.35h-1.09a6.56,6.56,0,0,1,.08,1.35h-4.31a11.092,11.092,0,0,1-1.71-.09v.99a12.834,12.834,0,0,1,1.68-.09h4.34v.99h-3.11a9.214,9.214,0,0,1-1.25-.06,6.782,6.782,0,0,1,.06,1.02v.66a6.312,6.312,0,0,1-.06,1,10.459,10.459,0,0,1,1.23-.06h3.13v.98h-3.49a8.685,8.685,0,0,1-1.44-.08v.93a9.646,9.646,0,0,1,1.41-.07h3.52Zm.9,0v-1.03h4.02v1.03Zm0,.78h4.02v1.08h-4.02Zm-.9-5.4v1.11h-3.4v-1.11Zm.9,0h3.72v1.11h-3.72Zm14.15,2.03v1.09h-2.97a11.447,11.447,0,0,1-1.6-.07v.909a11.448,11.448,0,0,1,1.6-.07h2.97v1.15h-4.3a11.5,11.5,0,0,1-1.7-.09v.98a14.165,14.165,0,0,1,1.7-.09h3.67a11.347,11.347,0,0,1-5.56,2.65,3.079,3.079,0,0,1,.61.87,11.859,11.859,0,0,0,5.639-3.22c-.05.58-.06.91-.06,1.26v.99a10.451,10.451,0,0,1-.09,1.57h1.08a11.265,11.265,0,0,1-.091-1.56v-1c0-.33-.02-.6-.06-1.28a9.589,9.589,0,0,0,2.38,1.83,15.989,15.989,0,0,0,3.68,1.41,3.552,3.552,0,0,1,.58-.93,11.9,11.9,0,0,1-5.95-2.59h3.93a14.212,14.212,0,0,1,1.69.09v-.98a11.182,11.182,0,0,1-1.71.09h-4.54v-1.15h3.15a11.775,11.775,0,0,1,1.62.07v-.909a11.549,11.549,0,0,1-1.62.07h-3.15v-1.09h4.08a12.009,12.009,0,0,1,1.62.07v-.93a11.227,11.227,0,0,1-1.62.08h-2.13a17.392,17.392,0,0,0,.81-1.69h1.77c.75,0,1.26.03,1.69.07v-.96a11.641,11.641,0,0,1-1.68.09h-.9a14.066,14.066,0,0,0,1.13-1.68l-.92-.39a9.812,9.812,0,0,1-1.18,2.07h-1.44v-1.15a6.912,6.912,0,0,1,.09-1.26h-1.02a9.4,9.4,0,0,1,.06,1.24V3912h-1.59v-1.17a9.153,9.153,0,0,1,.06-1.24h-1.02a7.237,7.237,0,0,1,.091,1.26V3912h-1.26a8.953,8.953,0,0,0-1.33-1.99l-.86.4a7.987,7.987,0,0,1,1.23,1.59h-1.03a11.824,11.824,0,0,1-1.67-.09v.96c.44-.04.95-.07,1.7-.07h1.89a8.549,8.549,0,0,1,.79,1.69h-2.17a10.852,10.852,0,0,1-1.61-.08v.93a11.941,11.941,0,0,1,1.61-.07h3.91Zm-.82-.78a11.015,11.015,0,0,0-.71-1.69h4.17a8,8,0,0,1-.77,1.69Zm21.17-.75a10.514,10.514,0,0,1,1.52.09v-.93a7.554,7.554,0,0,1-1.49.09h-5.84c.32-.45.32-.45.83-1.15l-.97-.27a5.18,5.18,0,0,1-.88,1.42h-2.87a9.028,9.028,0,0,1-1.47-.09v.93a11.143,11.143,0,0,1,1.52-.09h2.19a13.728,13.728,0,0,1-1.43,1.39c1.58.21,2.4.35,3.37.56a16.571,16.571,0,0,1-5.62.91,2.477,2.477,0,0,1,.41.81,16.745,16.745,0,0,0,6.47-1.419,28.9,28.9,0,0,1,4.64,1.53l.58-.74a38.73,38.73,0,0,0-4.27-1.33,5.956,5.956,0,0,0,1.72-1.71Zm-2.67,0a5.06,5.06,0,0,1-1.75,1.47c-.98-.23-1.78-.38-2.85-.54.41-.41.53-.54.87-.93Zm-1.89,4.48v-.19a7.275,7.275,0,0,1,.061-1.01h-1.021a6.275,6.275,0,0,1,.06,1.02v.18h-4.28a12.653,12.653,0,0,1-1.64-.091v.98a12.986,12.986,0,0,1,1.65-.09h3.54a9.919,9.919,0,0,1-2.23,1.62,16.918,16.918,0,0,1-3.39,1.39,3.017,3.017,0,0,1,.64.86,23.325,23.325,0,0,0,2.48-1.11,13.009,13.009,0,0,0,3.281-2.419c-.031.86-.051,1.29-.051,1.61v.64a8.759,8.759,0,0,1-.09,1.47h1.08a7.941,7.941,0,0,1-.09-1.47v-.64c0-.32-.03-1.02-.06-1.62a13.4,13.4,0,0,0,3.44,2.47,17.587,17.587,0,0,0,2.58,1.08,3.691,3.691,0,0,1,.61-.9,13.436,13.436,0,0,1-5.86-2.98h3.85a13.254,13.254,0,0,1,1.67.09v-.979a13.344,13.344,0,0,1-1.67.09h-4.56Zm-.88-7.64h-4.06c-.63,0-1.02-.02-1.52-.06a4.785,4.785,0,0,1,.06.87v.3a6.918,6.918,0,0,1-.04.82h.96v-1.15h10.48v1.17h.96a7.028,7.028,0,0,1-.05-.86v-.28a5.113,5.113,0,0,1,.06-.87c-.46.04-.84.06-1.51.06h-4.41v-.09a5.261,5.261,0,0,1,.1-1.11h-1.14a5.109,5.109,0,0,1,.11,1.11v.09Zm20.62,2.02v8.83c0,.35-.1.39-.81.39a11.232,11.232,0,0,1-2.05-.19,3.6,3.6,0,0,1,.24,1.03c.61.05,1.21.08,1.71.08,1.59,0,1.9-.18,1.9-1.13v-8.66a11.625,11.625,0,0,1,.059-1.32,11.8,11.8,0,0,1-1.509.07h-4.13c.02-.36.03-.57.05-1.24a4.559,4.559,0,0,1,.1-1.08h-1.17a4.708,4.708,0,0,1,.11,1.08c0,.55,0,.73-.03,1.24h-3.97a11.863,11.863,0,0,1-1.49-.07,10.3,10.3,0,0,1,.06,1.35v8.36a11.3,11.3,0,0,1-.1,1.67h1.17a10.938,10.938,0,0,1-.08-1.67v-8.74h4.32a7.01,7.01,0,0,1-1.47,3.9,7.938,7.938,0,0,1-2.59,2.01,2.728,2.728,0,0,1,.669.76,8.43,8.43,0,0,0,3.12-2.8,7.187,7.187,0,0,0,.841-1.89,10.183,10.183,0,0,0,4.12,4.56,3.266,3.266,0,0,1,.66-.87,10.282,10.282,0,0,1-2.97-2.37,8.911,8.911,0,0,1-1.51-2.66c.04-.25.06-.35.09-.64h4.66Z" transform="translate(-3028.46 -3909.38)" fill="#1c2843" fill-rule="evenodd"/>
    </g>
  </g>
</svg>
