<svg xmlns="http://www.w3.org/2000/svg" width="326.118" height="59.361" viewBox="0 0 326.118 59.361">
  <g id="text01" transform="translate(-12.321 -0.496)">
    <g id="グループ_53567" data-name="グループ 53567" transform="translate(12)">
      <path id="パス_33473" data-name="パス 33473" d="M320.14,59.857l-11.8-19.12v19.12H302.3V31.377h6.36l11.72,19.08V31.377h6v28.48ZM280.1,31.377h6.28v28.48H280.1Zm-38.28,23.4L257.14,36.7H242.9v-5.32h22.52v4.76L249.98,54.5h15.96v5.36H241.82ZM222.181,53.5h-10.6l-2.32,6.36h-6.4l10.84-28.52h6.44l10.84,28.52h-6.56Zm-5.28-15.16-3.8,10.6h7.56Zm-44.92,2.4v19.12h-6.04V31.377h6.36l11.72,19.08V31.377h6v28.48h-6.24ZM144.341,53.5h-10.6l-2.32,6.36h-6.4l10.84-28.52h6.44l10.84,28.52h-6.56Zm-5.28-15.16-3.8,10.6h7.56Zm-31.679,21.52-8.64-12.8-3.64,3.6v9.2h-6.16V31.377H95.1v11.84l11.2-11.84h7.88l-11.16,11.24,12.2,17.24ZM67.262,53.5h-10.6l-2.32,6.36h-6.4l10.84-28.52h6.44l10.84,28.52H69.5Zm-5.28-15.16-3.8,10.6h7.56Zm-38.12,21.52-4.88-19.44-4.8,19.44H7.822L.262,31.377h6.28l4.56,19.36,5-19.36h5.88l4.92,19.6,4.72-19.6h6.16L30.1,59.857Z" transform="translate(0.059)" fill="#1d2843" fill-rule="evenodd"/>
      <path id="パス_33474" data-name="パス 33474" d="M225.428,4.7c-.18.4-.674,1.394-.959,1.889a20.831,20.831,0,0,1-2.445,3.644,26.342,26.342,0,0,1,2.235,2.265l-.795.7a22.064,22.064,0,0,0-2.384-2.444A22.539,22.539,0,0,0,218.3,8.624l.735-.675a23.333,23.333,0,0,1,2.205,1.6,17.193,17.193,0,0,0,3.074-4.963h-5.054a18.906,18.906,0,0,1-3.884,4.978,4.335,4.335,0,0,0-.93-.674,16.19,16.19,0,0,0,3.719-4.439A9.342,9.342,0,0,0,219.535.826l1.23.36A9.073,9.073,0,0,0,220.2,2.6c-.135.33-.24.6-.465,1.08h3.554a12.007,12.007,0,0,0,1.74-.075l.6.675C225.548,4.425,225.548,4.425,225.428,4.7Zm-17.549,5.443A12.931,12.931,0,0,1,205.93,5.37,12.71,12.71,0,0,1,204.9,8.714a10.111,10.111,0,0,1-2.144,3.074,12.755,12.755,0,0,1-2.76,2.189,2.871,2.871,0,0,0-.809-.885,10.58,10.58,0,0,0,3.059-2.264,12.282,12.282,0,0,0,3.1-8.8,10.242,10.242,0,0,0-.06-1.32h1.2a10.206,10.206,0,0,0-.075,1.335,19.464,19.464,0,0,0,.329,3.254,13.121,13.121,0,0,0,1.935,4.2,13.292,13.292,0,0,0,2.219,2.37,10.984,10.984,0,0,0,1.74,1.169,3.413,3.413,0,0,0-.78.945A13.73,13.73,0,0,1,207.879,10.138Zm-16.424,1.53c-1.005-.93-1.6-1.425-3.794-3.134-.84-.66-1.08-.99-1.08-1.5a1.452,1.452,0,0,1,.435-1.005A11.562,11.562,0,0,1,188.29,5.01,23.836,23.836,0,0,0,192.684.9l1.05.78c-.165.135-.285.24-1.845,1.739a43.259,43.259,0,0,1-3.449,2.834c-.554.42-.659.54-.659.75,0,.27.12.375,1.334,1.32a44.1,44.1,0,0,1,4.8,4.094,3.82,3.82,0,0,0,.42.375l-.945.929A14.2,14.2,0,0,0,191.455,11.668Zm-9.482.885c-.225,1.079-.51,1.349-1.365,1.349-.3,0-.674-.03-1.259-.09a4.747,4.747,0,0,0-.18-.959,7.316,7.316,0,0,0,1.289.164c.51,0,.63-.224.81-1.544a51.689,51.689,0,0,0,.33-6.748h-1.26a26.348,26.348,0,0,1-.329,3.764,12.041,12.041,0,0,1-2.16,5.533,2.917,2.917,0,0,0-.795-.57c1.56-1.844,2.25-4.363,2.415-8.727h-.24a5.24,5.24,0,0,0-1.02.075V3.81a4.968,4.968,0,0,0,1.02.075h.27c.015-.525.015-.975.015-1.47a9.042,9.042,0,0,0-.09-1.739h1.049a9.711,9.711,0,0,0-.09,1.425c0,.959,0,.959-.015,1.784H181.4a9.859,9.859,0,0,0,1.125-.045,14.758,14.758,0,0,0-.075,2.039A40.324,40.324,0,0,1,181.973,12.553ZM175.345,3.96v.945h1.364a9.628,9.628,0,0,0,1.155-.03,8.071,8.071,0,0,0-.045,1.259v1.83a12.979,12.979,0,0,0,.03,1.3c-.435-.03-.69-.03-1.185-.03h-1.319v1h1.05a8.085,8.085,0,0,0,1.229-.06v.84a8.241,8.241,0,0,0-1.214-.06h-1.065v1.185c.945-.12,1.17-.165,2.054-.33v.765c-1.829.3-3.344.524-4.633.659-.33.03-.645.075-.885.12l-.195-.959a3.273,3.273,0,0,0,.36.015c.465,0,1.529-.075,2.489-.18V10.963H173.29a8.445,8.445,0,0,0-1.244.06v-.84a8.061,8.061,0,0,0,1.244.06h1.245v-1H173.4c-.539,0-.884.015-1.274.045a10.9,10.9,0,0,0,.06-1.305V6.164a10.581,10.581,0,0,0-.06-1.3,10.551,10.551,0,0,0,1.244.045h1.17V3.96h-1.32a8.983,8.983,0,0,0-1.244.06V3.165a8.062,8.062,0,0,0,1.244.06h1.32V2.25c-.675.105-.96.15-1.934.255a1.853,1.853,0,0,0-.33-.764,18.865,18.865,0,0,0,3.539-.48,5.12,5.12,0,0,0,1.454-.51l.525.8a19.463,19.463,0,0,1-2.444.555V3.225h1.3a7.455,7.455,0,0,0,1.26-.075v.87a10.754,10.754,0,0,0-1.26-.06Zm0,4.589h1.709V7.379h-1.709Zm0-1.83h1.709V5.595h-1.709Zm-.81-1.124h-1.589V6.719h1.589Zm0,1.784h-1.589v1.17h1.589Zm-3.494-2.834v7.678c0,.9.015,1.334.06,1.859h-1.05a15.591,15.591,0,0,0,.09-1.874V8.069c0-.855.015-1.44.06-2.22a8.958,8.958,0,0,1-1.064,1.74c-.045-.09-.09-.15-.1-.2a3.259,3.259,0,0,0-.465-.63,12.324,12.324,0,0,0,1.874-3.029A14.033,14.033,0,0,0,171.461.5l.975.27a4.227,4.227,0,0,0-.27.825A21.02,21.02,0,0,1,171.041,4.545Zm-5.3.33.735-.405a12.148,12.148,0,0,1,1.545,2.339l-.75.42A11.864,11.864,0,0,0,165.743,4.875Zm-.884-1.185a7.378,7.378,0,0,0-2.88,1.5,4.583,4.583,0,0,0-1.844,3.464,2.941,2.941,0,0,0,2.1,2.774,7.688,7.688,0,0,0,2.25.48h.15l-.2,1.214c-.165-.03-.195-.045-.465-.09a7.549,7.549,0,0,1-3.239-1.154,3.631,3.631,0,0,1-1.665-3.059,5.707,5.707,0,0,1,2.8-4.6,9.82,9.82,0,0,1,1.425-.8,31.627,31.627,0,0,1-4.2.33c-2.084.21-3.734.36-4.274.495l-.075-1.185c.285.015.435.015.54.015.21,0,.39-.015.855-.045.84-.06.93-.075,2.774-.18l2.355-.15c1.844-.105,2.039-.12,2.534-.135l.855-.03a10.126,10.126,0,0,0,1.784-.165l.09,1.11A6.279,6.279,0,0,0,164.859,3.69ZM146.29,1.876V3.7h2.1a9.859,9.859,0,0,0,1.245-.06,7.707,7.707,0,0,0-.06,1.065v5.338a7.622,7.622,0,0,0,.06,1.05,10.8,10.8,0,0,0-1.29-.06h-4.919a10.791,10.791,0,0,0-1.289.06,7.622,7.622,0,0,0,.06-1.05V4.71a7.707,7.707,0,0,0-.06-1.065,10.005,10.005,0,0,0,1.244.06h2.01V1.876h-4.529a12.718,12.718,0,0,0-1.574.09V.931a11.267,11.267,0,0,0,1.574.09h10.107a11.911,11.911,0,0,0,1.575-.09V1.966a12.4,12.4,0,0,0-1.575-.09Zm0,8.367H148.7V7.589H146.29Zm0-3.449H148.7V4.515H146.29Zm-.9-2.279h-2.324V6.794h2.324Zm0,3.074h-2.324v2.654h2.324ZM133.419,4.335a12.715,12.715,0,0,1-2.474-2.7,14.713,14.713,0,0,1-2.19,2.549,17.558,17.558,0,0,1-4.049,2.864,3.2,3.2,0,0,0-.629-.885,16.417,16.417,0,0,0,3.944-2.624A11.551,11.551,0,0,0,130.4.691h1.005a10.934,10.934,0,0,0,2.669,2.924,16.1,16.1,0,0,0,3.884,2.339,2.885,2.885,0,0,0-.6.945A19.146,19.146,0,0,1,133.419,4.335Zm-14.88,7.708a12.051,12.051,0,0,1-2.294-1.83c.015.165.015.165.03.54.015.225.03.525.03.87v.915a8.082,8.082,0,0,0,.105,1.574H115.3a9.635,9.635,0,0,0,.1-1.574v-.915c.015-.7.045-1.17.06-1.4a10.412,10.412,0,0,1-2.339,1.83,14.745,14.745,0,0,1-3.36,1.484,2.657,2.657,0,0,0-.644-.869,12.855,12.855,0,0,0,5.758-2.9h-3.794a12.958,12.958,0,0,0-1.649.09V8.879a10.689,10.689,0,0,0,1.664.09h4.3a4.706,4.706,0,0,0-.075-.96h1.05a4.363,4.363,0,0,0-.075.96h4.378a11.035,11.035,0,0,0,1.695-.09v.989a13.418,13.418,0,0,0-1.695-.09h-3.869a12.759,12.759,0,0,0,5.909,2.91,3.935,3.935,0,0,0-.615.9A15.241,15.241,0,0,1,118.539,12.043Zm.345-3.509-.765-.405a10.261,10.261,0,0,0,1.89-3l.914.42A19.064,19.064,0,0,1,118.884,8.534ZM115.705,7.8a6.92,6.92,0,0,0-1.08-1.9l.78-.329a11.056,11.056,0,0,1,1.11,1.844Zm-3.434.63a7.475,7.475,0,0,0-1.5-2.19l.81-.39a9.924,9.924,0,0,1,1.485,2.145Zm-2.13-3.794a59.558,59.558,0,0,0,6.1-.225,18.687,18.687,0,0,0,4.483-.84l.675.825a33.926,33.926,0,0,1-4.633.765,57.6,57.6,0,0,1-6.194.33A2.566,2.566,0,0,0,110.141,4.635ZM118.524,2.7v.12a5.933,5.933,0,0,0,.06.93h-1.035a6.319,6.319,0,0,0,.06-.93V2.7h-3.554v.33a5.933,5.933,0,0,0,.06.93h-1.034a6.187,6.187,0,0,0,.06-.93V2.7h-2.235a12.509,12.509,0,0,0-1.664.075V1.786a11.513,11.513,0,0,0,1.664.09h2.235v-.39a5.287,5.287,0,0,0-.09-.945h1.079a5.222,5.222,0,0,0-.075.945v.39h3.554v-.39a7.456,7.456,0,0,0-.075-.945H118.6a5.02,5.02,0,0,0-.075.945v.39h2.4a11.776,11.776,0,0,0,1.68-.09v.989a12.784,12.784,0,0,0-1.68-.075ZM99.835,6.464a11.984,11.984,0,0,1-1.5,1.98h6.074a8.11,8.11,0,0,0,1.409-.075,10.484,10.484,0,0,0-.075,1.424v2.82a11.432,11.432,0,0,0,.09,1.394h-1.064v-.855H98.35v.84H97.3a8.6,8.6,0,0,0,.09-1.409V9.359a17.384,17.384,0,0,1-2.535,1.889c-.045-.075-.075-.12-.09-.15a1.948,1.948,0,0,0-.539-.66,11.351,11.351,0,0,0,4.588-3.974h-2.8a13.638,13.638,0,0,0-1.679.09V5.52a13.134,13.134,0,0,0,1.679.09h3.314a5.6,5.6,0,0,0,.6-1.62l1.11.225c-.18.33-.18.33-.42.81-.09.21-.135.3-.285.585h5.488a12.659,12.659,0,0,0,1.65-.09V6.554a13.323,13.323,0,0,0-1.65-.09ZM98.35,12.3h6.419V9.284H98.35Zm5.114-9.313V3.45a6.366,6.366,0,0,0,.06.99h-1.035a6.751,6.751,0,0,0,.06-.99V2.985H99.085v.45a6.449,6.449,0,0,0,.06,1.005H98.111a6.62,6.62,0,0,0,.06-.99V2.985H95.936a11.957,11.957,0,0,0-1.679.075v-1a12.192,12.192,0,0,0,1.679.09h2.235v-.39a6.121,6.121,0,0,0-.09-1.065H99.16a7.909,7.909,0,0,0-.075,1.065v.39h3.464v-.39a6.248,6.248,0,0,0-.09-1.065h1.08a7.91,7.91,0,0,0-.075,1.065v.39h2.309a12.617,12.617,0,0,0,1.695-.09v1a12.62,12.62,0,0,0-1.695-.075Zm22.487,9.628h1.065V8.789a10.462,10.462,0,0,0-.1-1.665H128.1a9.976,9.976,0,0,0-.1,1.665v3.824h2.774V6.149a9.815,9.815,0,0,0-.1-1.634h1.2a9.4,9.4,0,0,0-.1,1.619V7.859h2.639a9.246,9.246,0,0,0,1.529-.09v1.1a9.89,9.89,0,0,0-1.529-.09h-2.639v3.839h4.123a10.336,10.336,0,0,0,1.71-.1v1.124a10.456,10.456,0,0,0-1.71-.1H126a10.4,10.4,0,0,0-1.724.1V12.508A9.574,9.574,0,0,0,125.951,12.613ZM139.6,4.05h1.125a8.636,8.636,0,0,0-.09,1.44v6.958h10.587V5.475a9.2,9.2,0,0,0-.09-1.425h1.125a11.589,11.589,0,0,0-.09,1.545v6.763a13.293,13.293,0,0,0,.09,1.8h-1.05V13.3H140.651v.855H139.6a13.547,13.547,0,0,0,.09-1.814V5.595A11.277,11.277,0,0,0,139.6,4.05ZM164.784,5.3a11.39,11.39,0,0,1,1.544,2.324l-.765.45a10.483,10.483,0,0,0-1.529-2.384Z" transform="translate(3.094)" fill="#1c2843" fill-rule="evenodd"/>
    </g>
  </g>
</svg>
