<svg xmlns="http://www.w3.org/2000/svg" viewBox="0 0 211.62 220.08"><defs><style>.cls-1{fill:#2ea7e0;}.cls-2{fill:#fff;}</style></defs><title>graph1</title><g id="レイヤー_2" data-name="レイヤー 2"><g id="レイヤー_1-2" data-name="レイヤー 1"><path class="cls-1" d="M40.23,74.66,15,118.73a108.41,108.41,0,0,1,88.18,90l50.61,11.31,57.88-63.89C182.44,65.57,100.31.06,0,0V0Z"/><path class="cls-2" d="M87.08,113.7c2.69-.46,6.37-2,7.59-3.09l.82,1.07a5.62,5.62,0,0,0-.69.35,24.36,24.36,0,0,1-7.72,2.72v2.34a.29.29,0,0,1,0,.1v.19c0,1.12.06,1.49.34,1.76a2,2,0,0,0,1.22.42,16.71,16.71,0,0,0,1.89.1,31.65,31.65,0,0,0,3.67-.26,10.61,10.61,0,0,0,1.58-.32l.1,1.26-1.5.16c-1,.11-3.14.22-4.24.22-1.89,0-2.95-.19-3.51-.66a2.12,2.12,0,0,1-.66-1.54c0-.27,0-.59,0-1.25v-7.38a9.55,9.55,0,0,0-.06-1.33h1.31a7.41,7.41,0,0,0-.08,1.34Z"/><path class="cls-2" d="M104.7,111.86a5.83,5.83,0,0,0-.06,1.12c0,2.67-.5,4.26-1.58,5.63a8.72,8.72,0,0,1-4.1,2.77,3.13,3.13,0,0,0-.74-1.07,7.52,7.52,0,0,0,2.93-1.47c1.7-1.36,2.32-3,2.32-6.11a4.24,4.24,0,0,0-.06-.86Zm6.32-2a2.88,2.88,0,0,0-.38.64A9.58,9.58,0,0,1,106,115a3.14,3.14,0,0,0-.78-.91,6.93,6.93,0,0,0,2.53-1.52,8.49,8.49,0,0,0,1.79-2.38h-9.09a15.38,15.38,0,0,0-1.89.08v-1.23a11.72,11.72,0,0,0,1.9.11H109c1.07,0,1.07,0,1.36-.11Z"/><path class="cls-2" d="M115.42,108.53a8.77,8.77,0,0,0-.06,1.33v4.31a8.5,8.5,0,0,0,.06,1.33h-1.33a9.74,9.74,0,0,0,.06-1.34v-4.27a9.44,9.44,0,0,0-.06-1.34Zm7.09,0a7.19,7.19,0,0,0-.08,1.39v1.89a18,18,0,0,1-.4,4.88,6.08,6.08,0,0,1-3,3.55,12.56,12.56,0,0,1-2.91,1.15,3.06,3.06,0,0,0-.67-1.1,9.33,9.33,0,0,0,3-1.09,4.78,4.78,0,0,0,2.56-3.38,19.93,19.93,0,0,0,.22-4.08v-1.81a8.78,8.78,0,0,0-.06-1.41Z"/><path class="cls-2" d="M126,119.5a13.94,13.94,0,0,0,4.66-1.23,12.1,12.1,0,0,0,6.53-7.12,3.21,3.21,0,0,0,1,.94,14,14,0,0,1-4.88,6.11,16.15,16.15,0,0,1-6,2.38,8.35,8.35,0,0,0-1,.26Zm1-9.92a20.83,20.83,0,0,1,3.86,3l-.83,1a17.66,17.66,0,0,0-3.81-3.14Z"/><path class="cls-2" d="M145.93,108.28a2.78,2.78,0,0,0-.35.66,12.66,12.66,0,0,1-.74,1.41,2.3,2.3,0,0,1,.58,0l3.87-.06a1.77,1.77,0,0,0,.83-.11l1,1a1.54,1.54,0,0,0-.27.62,15,15,0,0,1-8.71,9.83,2.52,2.52,0,0,0-.8-.94,13.77,13.77,0,0,0,8.4-9.4l-5.39.08a15.5,15.5,0,0,1-3.83,4.16,2.33,2.33,0,0,0-.9-.82,12.28,12.28,0,0,0,4-4.4,7.1,7.1,0,0,0,1-2.32Zm4.95-.51a11.09,11.09,0,0,1,1.63,2.42l-.8.48a11.16,11.16,0,0,0-1.63-2.47Zm1.79-.9a13.06,13.06,0,0,1,1.65,2.43l-.8.46a11.21,11.21,0,0,0-1.63-2.45Z"/><path class="cls-2" d="M98.65,127.64a8.56,8.56,0,0,0-.11,1.54v7.54a8.78,8.78,0,0,0,.11,1.57H97.33a8.68,8.68,0,0,0,.11-1.57v-3.54H91.11v3.54a8.34,8.34,0,0,0,.11,1.57H89.91a8.29,8.29,0,0,0,.11-1.57v-7.51a8.48,8.48,0,0,0-.11-1.57h1.32a8.41,8.41,0,0,0-.11,1.54v3h6.33v-3a8.48,8.48,0,0,0-.11-1.57Z"/><path class="cls-2" d="M101.43,134.68a3.18,3.18,0,0,0,.56,2,2.34,2.34,0,0,0,2,1,2.29,2.29,0,0,0,2.31-1.64l1,.39a3.34,3.34,0,0,1-.77,1.16,3.5,3.5,0,0,1-2.54,1c-2.2,0-3.59-1.54-3.59-4s1.37-4,3.47-4a3.31,3.31,0,0,1,3.39,3c0,.15.07.7.1,1.08Zm4.78-.88a2.56,2.56,0,0,0-.74-1.72,2.27,2.27,0,0,0-1.65-.63,2.19,2.19,0,0,0-2,1.22,2.93,2.93,0,0,0-.35,1.13Z"/><path class="cls-2" d="M113.94,137.3a3.65,3.65,0,0,1-1.29.85,4.13,4.13,0,0,1-1.46.28c-1.54,0-2.48-.8-2.48-2.13a2.36,2.36,0,0,1,2-2.3,11.43,11.43,0,0,1,3.22-.36v-.81c0-1-.6-1.44-1.77-1.44a2.3,2.3,0,0,0-1.74.6,2,2,0,0,0-.43.81l-1.09-.24a2.77,2.77,0,0,1,.78-1.25,3.53,3.53,0,0,1,2.47-.8c1.85,0,2.8.78,2.8,2.3v3.94a9,9,0,0,0,.11,1.54h-1.13Zm0-2.83a8.65,8.65,0,0,0-3.1.41,1.49,1.49,0,0,0-1.06,1.44c0,.77.57,1.26,1.48,1.26a3.17,3.17,0,0,0,2.24-1,1.53,1.53,0,0,0,.43-1.2Z"/><path class="cls-2" d="M121.54,131.82a3.32,3.32,0,0,0-1.13-.21,2.07,2.07,0,0,0-1.72.85,2.3,2.3,0,0,0-.52,1.4v2.86a11.07,11.07,0,0,0,.1,1.57H117a12.74,12.74,0,0,0,.1-1.58v-4.38a10.11,10.11,0,0,0-.1-1.58h1.16v.8a4.18,4.18,0,0,1,0,.42,2.45,2.45,0,0,1,.77-.85,2.8,2.8,0,0,1,1.68-.49,6.42,6.42,0,0,1,1.25.13Z"/><path class="cls-2" d="M124.36,127.64v1.25H123v-1.25Zm-.06,3.1a10,10,0,0,0-.1,1.58v4.38a11,11,0,0,0,.1,1.58H123a12.11,12.11,0,0,0,.1-1.58v-4.38a10.24,10.24,0,0,0-.1-1.58Z"/><path class="cls-2" d="M126.35,138.29a8.94,8.94,0,0,0,.11-1.58v-4.38a9.47,9.47,0,0,0-.11-1.58h1.16v1a3.76,3.76,0,0,1,0,.6,3,3,0,0,1,2.83-1.7,2.53,2.53,0,0,1,2.24,1.05,2.85,2.85,0,0,1,.39,1.61v3.46a9.59,9.59,0,0,0,.1,1.57h-1.26a11.26,11.26,0,0,0,.1-1.58v-3.26c0-1.26-.6-1.93-1.71-1.93a2.44,2.44,0,0,0-2,1.11,3,3,0,0,0-.64,1.39v2.7a11.41,11.41,0,0,0,.1,1.58Z"/><path class="cls-2" d="M135.87,139.27a2,2,0,0,0,.45.49,2.68,2.68,0,0,0,1.88.66,2.36,2.36,0,0,0,2.44-1.54,7.81,7.81,0,0,0,.25-2.07,2.54,2.54,0,0,1-.6.77,3.25,3.25,0,0,1-2.17.73c-2.12,0-3.46-1.47-3.46-3.81s1.37-3.89,3.54-3.89a2.9,2.9,0,0,1,2.69,1.47c0-.24,0-.35,0-.53v-.8H142a10.66,10.66,0,0,0-.1,1.57v5a4.24,4.24,0,0,1-.81,2.91,3.77,3.77,0,0,1-2.91,1.06,3.83,3.83,0,0,1-3.18-1.4Zm2.3-1.85c1.6,0,2.66-1.22,2.66-3s-1-2.9-2.58-2.9-2.51,1.15-2.51,3S136.67,137.42,138.17,137.42Z"/></g></g></svg>