<svg xmlns="http://www.w3.org/2000/svg" width="223.43" height="189.42" viewBox="0 0 223.43 189.42">
  <path id="text04" d="M196.866,187.871V161.184h26.687v26.687Zm-26.161,0H144.018V160.138H90.907V135.021L129.367,1.589h28.256L117.594,135.021h26.424V81.91h26.687v53.111h12.82v25.117h-12.82ZM67.624,178.714a37.675,37.675,0,0,1-12.689,7.979,42.568,42.568,0,0,1-30.088,0,37.636,37.636,0,0,1-12.689-7.979,39.133,39.133,0,0,1-8.765-12.559,40.631,40.631,0,0,1-3.27-16.744V40.049a40.644,40.644,0,0,1,3.27-16.744,39.231,39.231,0,0,1,8.765-12.559A37.7,37.7,0,0,1,24.847,2.767a42.568,42.568,0,0,1,30.088,0,37.738,37.738,0,0,1,12.689,7.979,39.307,39.307,0,0,1,8.764,12.559,40.709,40.709,0,0,1,3.271,16.744V149.411a40.7,40.7,0,0,1-3.271,16.744A39.208,39.208,0,0,1,67.624,178.714ZM52.972,40.049A13.2,13.2,0,0,0,49.309,30.5a12.531,12.531,0,0,0-9.418-3.794A12.521,12.521,0,0,0,30.472,30.5a13.188,13.188,0,0,0-3.663,9.549V149.411a13.173,13.173,0,0,0,3.663,9.549,12.506,12.506,0,0,0,9.419,3.794,12.516,12.516,0,0,0,9.418-3.794,13.19,13.19,0,0,0,3.663-9.549Z" transform="translate(-0.123 -0.02)" fill="#00a3df" fill-rule="evenodd"/>
</svg>
