<svg xmlns="http://www.w3.org/2000/svg" width="218.197" height="189.42" viewBox="0 0 218.197 189.42">
  <path id="text02" d="M191.634,187.871V161.184H218.32v26.687ZM92.216,162.754l48.14-90.786q3.66-6.8,4.186-11.9t.523-12.689q0-3.4-.131-7.195a17.562,17.562,0,0,0-1.439-6.672,12.44,12.44,0,0,0-3.924-4.84q-2.619-1.962-7.587-1.962-6.022,0-9.55,3.4T118.9,40.049V55.224H92.216V40.572a39.439,39.439,0,0,1,3.139-15.7,40.52,40.52,0,0,1,8.634-12.819A39.191,39.191,0,0,1,116.547,3.29a38.069,38.069,0,0,1,15.7-3.27q10.461,0,17.922,3.793a35.808,35.808,0,0,1,12.427,10.335,45.085,45.085,0,0,1,6.934,14.913,69.173,69.173,0,0,1,2.224,17.79q0,6.807-.262,11.381A68.927,68.927,0,0,1,170.443,67a38.7,38.7,0,0,1-2.616,8.372q-1.833,4.188-4.971,10.2l-39.245,75.611h48.141v26.687H92.216Zm-24.592,15.96a37.675,37.675,0,0,1-12.689,7.979,42.568,42.568,0,0,1-30.088,0,37.636,37.636,0,0,1-12.689-7.979,39.133,39.133,0,0,1-8.765-12.559,40.631,40.631,0,0,1-3.27-16.744V40.049a40.644,40.644,0,0,1,3.27-16.744,39.231,39.231,0,0,1,8.765-12.559A37.7,37.7,0,0,1,24.847,2.767a42.568,42.568,0,0,1,30.088,0,37.738,37.738,0,0,1,12.689,7.979,39.307,39.307,0,0,1,8.764,12.559,40.709,40.709,0,0,1,3.271,16.744V149.411a40.7,40.7,0,0,1-3.271,16.744A39.208,39.208,0,0,1,67.624,178.714ZM52.972,40.049A13.2,13.2,0,0,0,49.309,30.5a12.531,12.531,0,0,0-9.418-3.794A12.521,12.521,0,0,0,30.472,30.5a13.188,13.188,0,0,0-3.663,9.549V149.411a13.173,13.173,0,0,0,3.663,9.549,12.506,12.506,0,0,0,9.419,3.794,12.516,12.516,0,0,0,9.418-3.794,13.19,13.19,0,0,0,3.663-9.549Z" transform="translate(-0.123 -0.02)" fill="#00a3df" fill-rule="evenodd"/>
</svg>
