<svg xmlns="http://www.w3.org/2000/svg" width="218.197" height="189.42" viewBox="0 0 218.197 189.42">
  <path id="text03" d="M191.634,187.871V161.184H218.32v26.687ZM164.818,98.916a21.574,21.574,0,0,1,4.84,7.849,40.594,40.594,0,0,1,1.832,11.119q.258,6.414.262,16.352,0,9.162-.393,15.175a78.145,78.145,0,0,1-1.177,9.942,31.112,31.112,0,0,1-2.093,7.064,43.366,43.366,0,0,1-3.4,6.017A42.264,42.264,0,0,1,152,184.6q-7.719,4.845-20.276,4.84a47.08,47.08,0,0,1-13.343-2.093,36.315,36.315,0,0,1-12.82-6.8,36.863,36.863,0,0,1-9.55-12.3q-3.8-7.584-3.793-18.575V134.5H118.9v13.866a15.163,15.163,0,0,0,3.532,10.335,13.272,13.272,0,0,0,19.1,0q3.532-4.053,3.532-10.858V121.155q0-10.989-4.186-14.39a11.672,11.672,0,0,0-6.41-2.616,86.334,86.334,0,0,0-10.6-.524V80.079q12.031,0,16.614-2.878t4.578-13.343V39.787a13.013,13.013,0,0,0-3.532-9.418q-3.533-3.661-9.549-3.663-7.065,0-10.073,4.448a15.452,15.452,0,0,0-3.009,8.633V54.962H92.216V39.526A38.793,38.793,0,0,1,95.355,24.09a37.586,37.586,0,0,1,8.634-12.559,42.917,42.917,0,0,1,12.82-8.372A39.408,39.408,0,0,1,132.507.02Q143.5.02,150.69,4.336A41.977,41.977,0,0,1,161.548,13.1a57.562,57.562,0,0,1,4.578,6.279,30.658,30.658,0,0,1,3.271,7.588q2.355,8.632,2.355,25.639,0,9.683-.393,15.7a32.843,32.843,0,0,1-1.962,9.942,19.887,19.887,0,0,1-5.1,7.064,60.311,60.311,0,0,1-9.026,6.279A50.9,50.9,0,0,1,164.818,98.916Zm-97.194,79.8a37.675,37.675,0,0,1-12.689,7.979,42.568,42.568,0,0,1-30.088,0,37.636,37.636,0,0,1-12.689-7.979,39.133,39.133,0,0,1-8.765-12.559,40.631,40.631,0,0,1-3.27-16.744V40.049a40.644,40.644,0,0,1,3.27-16.744,39.231,39.231,0,0,1,8.765-12.559A37.7,37.7,0,0,1,24.847,2.767a42.568,42.568,0,0,1,30.088,0,37.738,37.738,0,0,1,12.689,7.979,39.307,39.307,0,0,1,8.764,12.559,40.709,40.709,0,0,1,3.271,16.744V149.411a40.7,40.7,0,0,1-3.271,16.744A39.208,39.208,0,0,1,67.624,178.714ZM52.972,40.049A13.2,13.2,0,0,0,49.309,30.5a12.531,12.531,0,0,0-9.418-3.794A12.521,12.521,0,0,0,30.472,30.5a13.188,13.188,0,0,0-3.663,9.549V149.411a13.173,13.173,0,0,0,3.663,9.549,12.506,12.506,0,0,0,9.419,3.794,12.516,12.516,0,0,0,9.418-3.794,13.19,13.19,0,0,0,3.663-9.549Z" transform="translate(-0.123 -0.02)" fill="#00a3df" fill-rule="evenodd"/>
</svg>
