<svg xmlns="http://www.w3.org/2000/svg" width="176.183" height="18.482" viewBox="0 0 176.183 18.482">
  <path id="foot-logo" d="M174.542,2.3h-5.9V4.36H171.2a12.944,12.944,0,0,0,1.66-.08,10.524,10.524,0,0,0-.08,1.461v7.141a9.628,9.628,0,0,0,.08,1.46,13.655,13.655,0,0,0-1.76-.08h-6.5a13.655,13.655,0,0,0-1.76.08,10.146,10.146,0,0,0,.08-1.46V5.741a10.524,10.524,0,0,0-.08-1.461,12.609,12.609,0,0,0,1.64.08h2.46V2.3h-5.7a21.412,21.412,0,0,0-2.32.12V.56a18.81,18.81,0,0,0,2.3.12h13.3a20.4,20.4,0,0,0,2.321-.12V2.42A20.8,20.8,0,0,0,174.542,2.3Zm-5.9,10.462h2.521V9.881h-2.521Zm0-4.381h2.521V5.9h-2.521Zm-1.7-2.48h-2.4v2.48h2.4Zm0,3.98h-2.4v2.881h2.4Zm-17-4.3a17.089,17.089,0,0,1-3.421-3.6,17.905,17.905,0,0,1-3.14,3.461,24.164,24.164,0,0,1-5.141,3.52,6.3,6.3,0,0,0-1.02-1.76,20.623,20.623,0,0,0,5.061-3.221A14.86,14.86,0,0,0,145.5.28h1.92a13.645,13.645,0,0,0,3.481,3.7,21.458,21.458,0,0,0,5.081,2.961A7.845,7.845,0,0,0,155,8.761,24.945,24.945,0,0,1,149.942,5.581Zm-24.161,7.781c.02.22.02.22.04.66.02.3.04.64.04,1.04V16.3a11.918,11.918,0,0,0,.14,2.1h-2.06a10.99,10.99,0,0,0,.16-2.08v-1.24q.03-1.14.06-1.68a11.6,11.6,0,0,1-2.94,2.52,16.364,16.364,0,0,1-4.2,1.86,5.567,5.567,0,0,0-1.12-1.62,14.385,14.385,0,0,0,6.861-3.4H118.6a18.46,18.46,0,0,0-2.28.12V11.061a15.388,15.388,0,0,0,2.28.12h5.481a5.681,5.681,0,0,0-.1-1.22h1.98a7.153,7.153,0,0,0-.1,1.22H131.5a16.213,16.213,0,0,0,2.32-.12v1.821a19.4,19.4,0,0,0-2.32-.12h-4.36a15,15,0,0,0,7.121,3.38,8.792,8.792,0,0,0-1.081,1.7C129.642,16.682,127.642,15.482,125.781,13.362ZM132,7.161a22.326,22.326,0,0,1-2.52,3.6l-1.42-.8a12.758,12.758,0,0,0,2.24-3.5Zm-7.381,2.72a8.411,8.411,0,0,0-1.38-2.34l1.48-.6a11.232,11.232,0,0,1,1.42,2.28Zm-4.781.82a9.974,9.974,0,0,0-1.88-2.8l1.48-.68a11.938,11.938,0,0,1,1.921,2.7Zm-2.78-5.22c1.14.02,1.16.02,1.3.02a73.215,73.215,0,0,0,8.261-.4,22.961,22.961,0,0,0,5-.921l1.22,1.481a47.5,47.5,0,0,1-6.521.98,82.919,82.919,0,0,1-8.481.42A4.642,4.642,0,0,0,117.06,5.481ZM128.922,3.26a6.9,6.9,0,0,0,.06,1.18H127.1a7.459,7.459,0,0,0,.08-1.18h-4.441V3.6a7.01,7.01,0,0,0,.06,1.12h-1.88A6.869,6.869,0,0,0,121,3.6V3.26H118.36a17.912,17.912,0,0,0-2.28.1V1.56a17.155,17.155,0,0,0,2.28.12H121V1.26A8.024,8.024,0,0,0,120.9.1h1.92a8.084,8.084,0,0,0-.08,1.16v.42h4.441V1.26a6.481,6.481,0,0,0-.1-1.16h1.94a5.684,5.684,0,0,0-.1,1.16v.42h2.88a17.308,17.308,0,0,0,2.3-.12v1.8a18.283,18.283,0,0,0-2.3-.1ZM102.4,8.341a16.309,16.309,0,0,1-1.62,2.26h7.9a13.483,13.483,0,0,0,1.84-.08,17.7,17.7,0,0,0-.08,1.921v3.88a15.292,15.292,0,0,0,.1,1.96h-1.96v-1.04h-8.021v1.02H98.62a12.442,12.442,0,0,0,.121-1.96V12.7a20.284,20.284,0,0,1-2.961,2.14,5.488,5.488,0,0,0-1.22-1.54,16.588,16.588,0,0,0,3.8-2.541,12.073,12.073,0,0,0,2.041-2.42H97.14a19.519,19.519,0,0,0-2.34.12V6.6a18.831,18.831,0,0,0,2.34.12h4.181a7.336,7.336,0,0,0,.7-2.021l2.06.321a4.986,4.986,0,0,0-.38.8c-.06.1-.26.54-.44.9h6.981a18.289,18.289,0,0,0,2.321-.12v1.86a19.426,19.426,0,0,0-2.321-.12Zm-1.84,7.261h8.021v-3.38h-8.021Zm6.9-11.982v.6a10.574,10.574,0,0,0,.06,1.181h-1.88a7.058,7.058,0,0,0,.08-1.161V3.62h-4.361V4.2a6.923,6.923,0,0,0,.06,1.2h-1.88a7.059,7.059,0,0,0,.08-1.161V3.62H97a16.438,16.438,0,0,0-2.28.1V1.9A17.155,17.155,0,0,0,97,2.02h2.621v-.5a8.964,8.964,0,0,0-.1-1.28h1.94a6.517,6.517,0,0,0-.1,1.28v.5h4.361v-.5a9.049,9.049,0,0,0-.1-1.28h1.941a6.4,6.4,0,0,0-.1,1.28v.5h2.74a18.608,18.608,0,0,0,2.34-.12V3.72a18.182,18.182,0,0,0-2.34-.1Zm-26.38,13.9H74.121a14.634,14.634,0,0,0-2.22.14v-2.08a16.494,16.494,0,0,0,2.24.12h2.4V7.621H74.861c-.72,0-1.36.04-1.98.1V5.761a12.871,12.871,0,0,0,1.98.12h1.681V2.04A13,13,0,0,0,76.4.06h2.12a10.74,10.74,0,0,0-.14,1.98V5.881H80.7a12.423,12.423,0,0,0,1.961-.12v1.96c-.62-.06-1.241-.1-1.961-.1h-2.32V15.7h2.7a15.9,15.9,0,0,0,2.241-.12v2.08A15.106,15.106,0,0,0,81.082,17.522ZM70.4,8.4a12.211,12.211,0,0,0,3.2,2.62,6.8,6.8,0,0,0-.92,1.621A11.791,11.791,0,0,1,70,10.281V16.4a13.568,13.568,0,0,0,.1,2.02H68.08a13.969,13.969,0,0,0,.121-2.04V10.841a17.254,17.254,0,0,1-2.461,2,5.888,5.888,0,0,0-.9-1.681A14.819,14.819,0,0,0,68.4,8.281,12.845,12.845,0,0,0,70.641,5H67.2a13.557,13.557,0,0,0-1.66.08V3.22a12.824,12.824,0,0,0,1.58.08H68.2V1.54A8.9,8.9,0,0,0,68.08.02h2.041A8.524,8.524,0,0,0,70,1.58V3.3h.96a7.285,7.285,0,0,0,1.16-.06l.82.9a5.985,5.985,0,0,0-.44.8A16.6,16.6,0,0,1,70.4,8.4ZM57.842,6.341v1.62a14.683,14.683,0,0,0-1.76-.08H49.5a14.074,14.074,0,0,0-1.64.08v-1.6A19.65,19.65,0,0,1,44.5,8.241a5.678,5.678,0,0,0-1.04-1.68,17.424,17.424,0,0,0,8.3-6.4h1.981A12.979,12.979,0,0,0,57.1,3.58a20.98,20.98,0,0,0,5.3,2.9,7.28,7.28,0,0,0-.98,1.86A23.47,23.47,0,0,1,57.842,6.341ZM52.8,1.78a18.491,18.491,0,0,1-4.58,4.341,12.461,12.461,0,0,0,1.3.04h6.561c.58,0,.98-.02,1.4-.04A17.648,17.648,0,0,1,52.8,1.78ZM37.662,15.522a1.38,1.38,0,0,0,.54.36c.32,0,.6-1.02.88-3.14a4.834,4.834,0,0,0,1.621.98c-.5,3-1.24,4.34-2.421,4.34a3.822,3.822,0,0,1-2.56-1.9c-1.56-2.2-2.46-5.821-2.68-10.8H24.88a19.316,19.316,0,0,0-2.22.12V3.58a16.785,16.785,0,0,0,2.22.12h8.1c-.06-2.02-.08-2.2-.08-2.32,0-.18-.04-.54-.1-1.04h2.06c-.04.24-.1,1.26-.1,1.56,0,.28.02,1.26.04,1.8h3.54a11.464,11.464,0,0,0,1.941-.12v1.9a16.593,16.593,0,0,0-2.221-.12h-3.2a23.673,23.673,0,0,0,1.42,7.821A6.967,6.967,0,0,0,37.662,15.522Zm-2.2-14.3L36.822.4a16.78,16.78,0,0,1,2.22,2.26l-1.4.9A11.8,11.8,0,0,0,35.462,1.22ZM18.3,16.662a16.123,16.123,0,0,1-4.7-5.441c.04.741.08,1.441.08,2.061v2.96a13.907,13.907,0,0,0,.12,2.24h-1.96a17.671,17.671,0,0,0,.12-2.26v-2.84c0-.58.02-1.3.06-2.121A14.7,14.7,0,0,1,7.1,16.742,7.569,7.569,0,0,0,6,15.182a13.585,13.585,0,0,0,5.3-5.521H9.6a15.462,15.462,0,0,0-2.1.12v-.7a6.118,6.118,0,0,0-.84,1.52,11.8,11.8,0,0,1-1.34-2.88c0,.3.02.52.02.68.02.26.04,1.02.08,2.28v5.361a15.377,15.377,0,0,0,.12,2.4H3.6a18.78,18.78,0,0,0,.12-2.4V11.161c0-1,.02-1.52.12-2.88a16.488,16.488,0,0,1-2.32,5.341,6.57,6.57,0,0,0-.86-1.8,17.458,17.458,0,0,0,2.86-6.34H2.58a7.785,7.785,0,0,0-1.36.08V3.8a7.785,7.785,0,0,0,1.36.08H3.7V2.12A12.572,12.572,0,0,0,3.6.06H5.521a13.376,13.376,0,0,0-.1,2.04V3.88h.62a6.406,6.406,0,0,0,1.18-.08V5.541a10.073,10.073,0,0,0-1.14-.06h-.6A12.239,12.239,0,0,0,7.5,9.041V7.861a15.258,15.258,0,0,0,2.1.12h2.361V5.161h-2.5a12.7,12.7,0,0,1-1.18,2.32A6.25,6.25,0,0,0,6.9,6.4,11.929,11.929,0,0,0,8.781,2,6.276,6.276,0,0,0,8.941.88l1.72.44a12.6,12.6,0,0,0-.34,1.22c-.12.42-.18.62-.28.98h1.921V1.92a11.1,11.1,0,0,0-.12-1.84H13.8a10.768,10.768,0,0,0-.12,1.84v1.6h2.58a13.168,13.168,0,0,0,2.061-.12V5.261a18.325,18.325,0,0,0-2.061-.1h-2.58v2.82h3.2a15.367,15.367,0,0,0,2.081-.12v1.9c-.66-.06-1.281-.1-2.081-.1h-2.62a14.35,14.35,0,0,0,5.221,5.3A7.224,7.224,0,0,0,18.3,16.662Zm8.6-1.74V9.7H25.34a17.432,17.432,0,0,0-1.92.1V8a15.88,15.88,0,0,0,1.961.1h4.98a12.273,12.273,0,0,0,1.92-.1V9.8a17.044,17.044,0,0,0-1.9-.1h-1.64v4.881c.98-.16,1.64-.32,4.241-.98v1.7c-3.141.8-5.721,1.34-9.282,1.96a4.877,4.877,0,0,0-.62.12l-.34-1.94A24.569,24.569,0,0,0,26.9,14.922ZM59.062,9.861a17.847,17.847,0,0,0,2.321-.12V11.7a18.278,18.278,0,0,0-2.321-.12h-7a27.8,27.8,0,0,1-2.26,4.241c4.681-.36,4.681-.36,6.941-.62-.84-.94-1.24-1.36-2.18-2.28l1.54-.82a41.685,41.685,0,0,1,4.7,5.3l-1.581,1.1c-.64-.98-.88-1.3-1.28-1.84-3.32.44-7.121.82-10.1,1.04a27.284,27.284,0,0,0-2.9.3l-.3-2.04c.44.02.84.04,1.12.04.16,0,.46-.02.92-.04.181,0,.181,0,.981-.04a25.22,25.22,0,0,0,2.3-4.341h-3.3a17.829,17.829,0,0,0-2.32.12V9.741a18.482,18.482,0,0,0,2.32.12Zm80.778,6.061h1.1v-4.9a18.116,18.116,0,0,0-.12-2.26h2.1a13.514,13.514,0,0,0-.14,2.26v4.9h3.24V7.581a16.249,16.249,0,0,0-.12-2.2H148a12.846,12.846,0,0,0-.12,2.16v2.12h3.381a14.151,14.151,0,0,0,2.14-.12v2a14.974,14.974,0,0,0-2.12-.12h-3.4v4.5h5.181a14.91,14.91,0,0,0,2.421-.14v2.04a15.915,15.915,0,0,0-2.421-.14H139.98a16.3,16.3,0,0,0-2.46.14v-2.04A13.38,13.38,0,0,0,139.84,15.922Zm19.5-11.2h1.98a10.487,10.487,0,0,0-.1,1.821V15.8H174.5V6.521a15.007,15.007,0,0,0-.08-1.8h1.98a18.153,18.153,0,0,0-.12,2.181v8.981a23.147,23.147,0,0,0,.12,2.56h-1.92v-1.02H161.26v1.02h-1.92a22.891,22.891,0,0,0,.12-2.56V6.861A18.436,18.436,0,0,0,159.34,4.72Z" transform="translate(-0.66 -0.02)" fill="#fff" fill-rule="evenodd"/>
</svg>
