<svg id="menu_on" xmlns="http://www.w3.org/2000/svg" width="113" height="77" viewBox="0 0 113 77">
  <path id="パス_33446" data-name="パス 33446" d="M0,0H113V77H0Z" fill="#da4d70" fill-rule="evenodd"/>
  <g id="グループ_53561" data-name="グループ 53561" transform="translate(0 0.281)">
    <g id="グループ_53560" data-name="グループ 53560" transform="translate(-0.165)">
      <path id="パス_33447" data-name="パス 33447" d="M46.245,38.018l20.12-19.473,1.39,1.437L47.636,39.455Z" fill="#f7f7f7" fill-rule="evenodd"/>
      <path id="パス_33448" data-name="パス 33448" d="M47.544,17.719,66.835,37.861l-1.379,1.421L46.165,19.139Z" fill="#f7f7f7" fill-rule="evenodd"/>
    </g>
    <path id="パス_33477" data-name="パス 33477" d="M-12-2.75a3.244,3.244,0,0,1-.94,2.13,3.107,3.107,0,0,1-2.25.79,3.233,3.233,0,0,1-2.5-1.025,3.847,3.847,0,0,1-.945-2.715,3.825,3.825,0,0,1,.955-2.66,3.258,3.258,0,0,1,2.545-1.06,3.206,3.206,0,0,1,2.13.72,2.571,2.571,0,0,1,.95,1.83h-1.53a1.493,1.493,0,0,0-.535-.915,1.643,1.643,0,0,0-1.045-.325,1.67,1.67,0,0,0-1.095.365,1.95,1.95,0,0,0-.625.895,3.587,3.587,0,0,0-.18,1.16,2.781,2.781,0,0,0,.51,1.755,1.647,1.647,0,0,0,1.37.655q1.43,0,1.63-1.6Zm7.09,1.41V0h-5.04V-7.12h1.56v5.78ZM.205-7.29A3.292,3.292,0,0,1,2.73-6.255,3.807,3.807,0,0,1,3.7-3.55,3.771,3.771,0,0,1,2.73-.855,3.32,3.32,0,0,1,.195.17,3.348,3.348,0,0,1-2.355-.855a3.76,3.76,0,0,1-.97-2.695A3.8,3.8,0,0,1-2.36-6.265,3.357,3.357,0,0,1,.205-7.29ZM.185-6.01a1.7,1.7,0,0,0-1.4.66,2.764,2.764,0,0,0-.525,1.77,2.809,2.809,0,0,0,.52,1.8,1.758,1.758,0,0,0,1.43.66,1.672,1.672,0,0,0,1.4-.66,2.874,2.874,0,0,0,.51-1.8,2.778,2.778,0,0,0-.52-1.775A1.7,1.7,0,0,0,.185-6.01ZM11.035-5H9.555q-.09-1.06-1.35-1.06a1.447,1.447,0,0,0-.845.215.688.688,0,0,0-.3.6.616.616,0,0,0,.04.23.45.45,0,0,0,.15.185,1.345,1.345,0,0,0,.22.14,2.179,2.179,0,0,0,.325.12q.215.065.39.115t.5.13q.32.08.56.15a4.1,4.1,0,0,1,1.565.75,1.621,1.621,0,0,1,.515,1.29,2.177,2.177,0,0,1-.25,1.065,1.922,1.922,0,0,1-.675.72,3.2,3.2,0,0,1-.93.39A4.462,4.462,0,0,1,8.385.16,3.487,3.487,0,0,1,6.12-.5,2.31,2.31,0,0,1,5.3-2.38h1.55q.04,1.34,1.61,1.34A1.625,1.625,0,0,0,9.42-1.3a.811.811,0,0,0,.355-.695.568.568,0,0,0-.325-.54A8.914,8.914,0,0,0,8.085-3q-.17-.04-.26-.07-.36-.1-.5-.145T6.88-3.37a2.352,2.352,0,0,1-.445-.2q-.14-.09-.345-.25a1.042,1.042,0,0,1-.3-.335,2.477,2.477,0,0,1-.165-.43,1.96,1.96,0,0,1-.075-.555,1.86,1.86,0,0,1,.75-1.55A3.166,3.166,0,0,1,8.3-7.27a3.2,3.2,0,0,1,1.96.565A2.035,2.035,0,0,1,11.035-5ZM18.6-7.12v1.28h-3.79v1.55h3.48v1.23h-3.48v1.75h3.86V0h-5.41V-7.12Z" transform="translate(56.625 58)" fill="#fff"/>
  </g>
</svg>
