<svg xmlns="http://www.w3.org/2000/svg" width="92.262" height="77.936" viewBox="0 0 92.262 77.936">
  <g id="page-top" transform="translate(-0.779)">
    <path id="パス_33457" data-name="パス 33457" d="M92.093,73.461a3.779,3.779,0,0,1-2.478.778H87.449v3.466h-2.1v-9.64h4.157a3.96,3.96,0,0,1,2.579.778,3.277,3.277,0,0,1,.007,4.618ZM89.344,69.8h-1.9v2.776h1.882q1.651,0,1.652-1.381T89.344,69.8ZM75.628,77.936a4.536,4.536,0,0,1-3.453-1.388,5.775,5.775,0,0,1-.006-7.325,4.541,4.541,0,0,1,3.473-1.388,4.456,4.456,0,0,1,3.418,1.4,5.767,5.767,0,0,1,0,7.312A4.5,4.5,0,0,1,75.628,77.936Zm1.9-7.481a2.486,2.486,0,0,0-3.812.006,3.743,3.743,0,0,0-.711,2.4,3.8,3.8,0,0,0,.7,2.437,2.381,2.381,0,0,0,1.937.894,2.263,2.263,0,0,0,1.9-.894,3.885,3.885,0,0,0,.691-2.437A3.762,3.762,0,0,0,77.524,70.455Zm-13.771,7.25H61.628V69.866h-2.9v-1.8h7.921v1.8h-2.9Zm-23.844-9.64H47.14V69.8H42.008v2.1H46.72v1.665H42.008v2.37h5.227v1.773H39.909Zm-6.756,8.544a3.551,3.551,0,0,1-2.9,1.327,4.206,4.206,0,0,1-3.276-1.395,5.187,5.187,0,0,1-1.26-3.615,5.121,5.121,0,0,1,1.327-3.649,4.47,4.47,0,0,1,3.412-1.415,4.272,4.272,0,0,1,2.79.927,3.615,3.615,0,0,1,1.327,2.444H32.53a1.867,1.867,0,0,0-.7-1.178,2.252,2.252,0,0,0-1.4-.419,2.284,2.284,0,0,0-1.9.873,4.6,4.6,0,0,0,.007,4.861,2.36,2.36,0,0,0,1.956.873,2.271,2.271,0,0,0,1.625-.6,2.209,2.209,0,0,0,.677-1.578H30.648v-1.57H34.7v5.212H33.356ZM18.8,75.553H15.212l-.785,2.152H12.261l3.669-9.654h2.18l3.669,9.654h-2.22Zm-1.787-5.132-1.286,3.588h2.559ZM5.044,74.239H2.877v3.466H.779v-9.64H4.935a3.961,3.961,0,0,1,2.58.778,3.28,3.28,0,0,1,.007,4.618A3.779,3.779,0,0,1,5.044,74.239ZM4.773,69.8h-1.9v2.776H4.759q1.653,0,1.652-1.381T4.773,69.8Z" fill="#1d2843" fill-rule="evenodd"/>
    <path id="パス_33458" data-name="パス 33458" d="M44.1,0h1V51h-1Z" transform="translate(2.679)" fill="#4f4f4f" fill-rule="evenodd"/>
  </g>
</svg>
